<svg width="130" height="130" viewBox="0 0 130 130" fill="none" xmlns="http://www.w3.org/2000/svg">
<path d="M129.692 64.6225C129.815 100.435 100.883 129.569 65.0698 129.692C29.2566 129.815 0.124778 100.883 0.000396118 65.0698C-0.123338 29.2562 28.8096 0.123489 64.6228 0.000395669C100.436 -0.123494 129.568 28.809 129.692 64.6225Z" fill="black"/>
<path d="M59.7983 109.242C37.5926 106.735 20.2473 87.8784 20.1675 65.0007L22.6373 64.9912C22.7174 88.2659 41.7225 107.138 64.9913 107.054C88.2652 106.974 107.135 87.9731 107.054 64.7002L109.525 64.6925C109.61 89.3263 89.6361 109.44 65.0002 109.525C63.242 109.531 61.5041 109.434 59.7983 109.242Z" fill="#FFFDF5"/>
<path d="M55.0095 37.7272C55.0464 48.4892 51.9309 57.2239 48.049 57.2372C44.1676 57.2507 40.9918 48.5376 40.9538 37.7763C40.9169 27.0143 44.034 18.2791 47.9146 18.2658C51.7957 18.2527 54.9723 26.9657 55.0095 37.7272Z" fill="#FFFDF5"/>
<path d="M88.5507 37.6122C88.5882 48.3733 85.4711 57.1084 81.5902 57.1222C77.7088 57.1358 74.5328 48.4218 74.4956 37.6603C74.4581 26.8993 77.5739 18.1641 81.4561 18.1503C85.3372 18.1373 88.5135 26.8507 88.5507 37.6122Z" fill="#FFFDF5"/>
<path d="M15.6287 68.5892C15.2854 68.5502 14.9594 68.3671 14.7485 68.0588C14.363 67.4968 14.5062 66.7286 15.0688 66.3422C18.7671 63.8073 22.8729 62.9414 27.2738 63.7662C27.9442 63.8919 28.3866 64.5374 28.2601 65.2079C28.1349 65.8786 27.4903 66.3229 26.8179 66.1939C23.0335 65.4796 19.6471 66.1992 16.4647 68.3796C16.2105 68.5551 15.9133 68.6209 15.6287 68.5892Z" fill="#FFFDF5"/>
<path d="M113.801 68.2495C113.61 68.229 113.421 68.1614 113.25 68.0465C110.051 65.8864 106.66 65.1949 102.882 65.9313C102.211 66.0624 101.564 65.6239 101.434 64.9544C101.302 64.2853 101.74 63.6366 102.41 63.5066C106.803 62.6499 110.915 63.4877 114.632 65.9989C115.197 66.3804 115.346 67.1494 114.964 67.7137C114.698 68.1079 114.244 68.2999 113.801 68.2495Z" fill="#FFFDF5"/>
</svg>
