<svg width="616" height="181" viewBox="0 0 616 181" fill="none" xmlns="http://www.w3.org/2000/svg">
<path d="M356 106.022C356 112.197 361.006 117.204 367.182 117.204C373.357 117.204 397 112.197 397 106.022C397 99.8463 373.357 94.84 367.182 94.84C361.006 94.84 356 99.8463 356 106.022Z" fill="#FFFDF5"/>
<path d="M78.366 160.06C67.118 160.06 56.684 158.062 47.064 154.066C37.592 149.922 29.304 144.224 22.2 136.972C15.096 129.572 9.62 121.062 5.772 111.442C1.924 101.674 0 91.24 0 80.14C0 69.04 1.924 58.68 5.772 49.06C9.62 39.292 15.096 30.782 22.2 23.53C29.304 16.278 37.592 10.58 47.064 6.436C56.684 2.292 67.118 0.220001 78.366 0.220001C90.946 0.220001 101.824 2.292 111 6.436C120.176 10.58 128.316 16.204 135.42 23.308L118.104 40.624C113.516 35.592 107.892 31.67 101.232 28.858C94.72 26.046 87.098 24.64 78.366 24.64C70.67 24.64 63.64 25.972 57.276 28.636C50.912 31.3 45.362 35.148 40.626 40.18C36.038 45.064 32.486 50.91 29.97 57.718C27.454 64.526 26.196 72 26.196 80.14C26.196 88.28 27.454 95.754 29.97 102.562C32.486 109.37 36.038 115.29 40.626 120.322C45.362 125.206 50.912 128.98 57.276 131.644C63.64 134.308 70.67 135.64 78.366 135.64C87.838 135.64 95.83 134.234 102.342 131.422C109.002 128.462 114.626 124.466 119.214 119.434L136.53 136.75C129.426 144.002 121.064 149.7 111.444 153.844C101.824 157.988 90.798 160.06 78.366 160.06Z" fill="#FFFEF5"/>
<path d="M154.981 159.84V10H179.401V159.84H154.981Z" fill="#FFFEF5"/>
<path d="M236.989 168.95L191.479 61.28H218.341L249.421 140.312H241.651L274.507 61.28H301.591L252.085 168.95H236.989ZM225.243 180.24L238.321 144.086L252.085 168.95L247.327 180.24H225.243Z" fill="#FFFEF5"/>
<path d="M356.683 162.06C347.063 162.06 338.331 159.618 330.487 154.734C322.791 149.85 316.649 143.264 312.061 134.976C307.621 126.54 305.401 117.142 305.401 106.782C305.401 96.274 307.621 86.876 312.061 78.588C316.649 70.152 322.791 63.492 330.487 58.608C338.331 53.576 347.063 51.06 356.683 51.06C364.823 51.06 436 52.5 452.217 57.388C468.434 62.276 468.613 64.528 472.313 70.596C476.013 76.664 477.863 83.546 477.863 91.242V121.878C477.863 129.574 476.013 136.456 472.313 142.524C468.761 148.592 467.378 150.408 452.439 155.954C437.5 161.5 364.823 162.06 356.683 162.06ZM360.679 138.972C366.747 138.972 451.001 137.64 455.441 134.976C460.029 132.164 463.581 128.316 466.097 123.432C468.613 118.548 469.871 112.924 469.871 106.56C469.871 100.196 468.613 94.572 466.097 89.688C463.581 84.804 460.029 81.03 455.441 78.366C451.001 75.554 366.747 74.148 360.679 74.148C354.759 74.148 349.505 75.554 344.917 78.366C340.477 81.03 336.925 84.804 334.261 89.688C331.745 94.572 330.487 100.196 330.487 106.56C330.487 112.924 331.745 118.548 334.261 123.432C336.925 128.316 340.477 132.164 344.917 134.976C349.505 137.64 354.759 138.972 360.679 138.972ZM496.737 159.84H468.317V131.202L472.535 105.228L468.317 79.476V10H496.737V159.84Z" fill="#FFFEF5"/>
<path d="M566.388 160.06C555.732 160.06 546.112 157.692 537.528 152.956C529.092 148.072 522.358 141.412 517.326 132.976C512.442 124.54 510 115.068 510 104.56C510 94.052 512.442 84.654 517.326 76.366C522.21 67.93 528.796 61.27 537.084 56.386C545.52 51.502 554.844 49.06 565.056 49.06C574.972 49.06 583.704 51.354 591.252 55.942C598.948 60.53 604.942 66.82 609.234 74.812C613.674 82.804 615.894 91.906 615.894 102.118C615.894 103.894 615.746 105.744 615.45 107.668C615.302 109.444 615.006 111.442 614.562 113.662H527.094V93.682H601.908L592.806 101.674C592.51 95.162 591.252 89.686 589.032 85.246C586.812 80.806 583.63 77.402 579.486 75.034C575.49 72.666 570.532 71.482 564.612 71.482C558.396 71.482 552.994 72.814 548.406 75.478C543.818 78.142 540.266 81.916 537.75 86.8C535.234 91.536 533.976 97.234 533.976 103.894C533.976 110.554 535.308 116.4 537.972 121.432C540.636 126.464 544.41 130.386 549.294 133.198C554.178 135.862 559.802 137.194 566.166 137.194C571.642 137.194 576.674 136.232 581.262 134.308C585.998 132.384 589.994 129.572 593.25 125.872L608.79 141.634C603.61 147.702 597.32 152.29 589.92 155.398C582.52 158.506 574.676 160.06 566.388 160.06Z" fill="#FFFEF5"/>
</svg>
