<svg width="40" height="40" viewBox="0 0 40 40" fill="none" xmlns="http://www.w3.org/2000/svg">
<path d="M19.9997 26.6671C23.6816 26.6671 26.6663 23.6823 26.6663 20.0004C26.6663 16.3185 23.6816 13.3337 19.9997 13.3337C16.3178 13.3337 13.333 16.3185 13.333 20.0004C13.333 23.6823 16.3178 26.6671 19.9997 26.6671Z" stroke="#FFFDF5" stroke-width="2.5" stroke-linecap="round" stroke-linejoin="round"/>
<path d="M5 26.667V13.3337C5 8.73134 8.73096 5.00038 13.3333 5.00038H26.6667C31.269 5.00038 35 8.73134 35 13.3337V26.667C35 31.2694 31.269 35.0004 26.6667 35.0004H13.3333C8.73096 35.0004 5 31.2694 5 26.667Z" stroke="#FFFDF5" stroke-width="2.5"/>
<path d="M29.167 10.8504L29.1837 10.8319" stroke="#FFFDF5" stroke-width="2.5" stroke-linecap="round" stroke-linejoin="round"/>
</svg>
