<svg width="61" height="31" viewBox="0 0 61 31" fill="none" xmlns="http://www.w3.org/2000/svg">
<path d="M45.5977 30.5602C42.7454 30.5602 9.9015 29.8879 7.57893 28.5432C5.25635 27.1578 3.40237 25.3038 2.01697 22.9813C0.672323 20.6587 0 18.0713 0 15.219C0 12.3667 0.672323 9.79963 2.01697 7.5178C3.40237 5.23598 5.25635 3.42274 7.57893 2.07809C9.9015 0.692698 42.7454 0 45.5977 0C48.4907 0 51.0985 0.672324 53.4211 2.01697C55.7436 3.36162 57.5773 5.19523 58.9219 7.5178C60.3073 9.79963 61 12.3667 61 15.219C61 18.0713 60.3073 20.6587 58.9219 22.9813C57.5773 25.3038 55.7436 27.1578 53.4211 28.5432C51.0985 29.8879 48.4907 30.5602 45.5977 30.5602ZM45.5977 24.0814C47.2683 24.0814 48.7352 23.7147 49.9983 22.9813C51.3022 22.2071 52.3005 21.1477 52.9932 19.803C53.7267 18.4584 54.0934 16.9303 54.0934 15.219C54.0934 13.5076 53.7267 12 52.9932 10.6961C52.2598 9.39216 51.2615 8.37349 49.9983 7.64005C48.7352 6.86586 47.2683 6.47876 45.5977 6.47876C43.9678 6.47876 12.2444 6.86586 10.9405 7.64005C9.67739 8.37349 8.67909 9.39216 7.94565 10.6961C7.25295 12 6.9066 13.5076 6.9066 15.219C6.9066 16.9303 7.25295 18.4584 7.94565 19.803C8.67909 21.1477 9.67739 22.2071 10.9405 22.9813C12.2444 23.7147 43.9678 24.0814 45.5977 24.0814Z" fill="#FFFDF5"/>
<path d="M48.8085 14.858C48.8085 16.5662 47.4238 17.9509 45.7156 17.9509C44.0075 17.9509 37.468 16.5662 37.468 14.858C37.468 13.1499 44.0075 11.7652 45.7156 11.7652C47.4238 11.7652 48.8085 13.1499 48.8085 14.858Z" fill="#FFFDF5"/>
</svg>
