<svg width="169" height="42" viewBox="0 0 169 42" fill="none" xmlns="http://www.w3.org/2000/svg">
<g clip-path="url(#clip0_250_223)">
<path d="M50.8601 29.3534H62.8121V25.7534H55.1081V12.1934H50.8601V29.3534Z" fill="#FFFEF5"/>
<path d="M69.8932 26.953C68.1892 26.953 67.3012 25.465 67.3012 23.233C67.3012 21.001 68.1892 19.489 69.8932 19.489C71.5972 19.489 72.5092 21.001 72.5092 23.233C72.5092 25.465 71.5972 26.953 69.8932 26.953ZM69.9172 29.737C73.8772 29.737 76.4692 26.929 76.4692 23.233C76.4692 19.537 73.8772 16.729 69.9172 16.729C65.9812 16.729 63.3412 19.537 63.3412 23.233C63.3412 26.929 65.9812 29.737 69.9172 29.737Z" fill="#FFFEF5"/>
<path d="M83.3237 33.6011C85.1477 33.6011 86.7557 33.1931 87.8357 32.2331C88.8197 31.3451 89.4677 30.0011 89.4677 28.1531V17.0651H85.7237V18.3851H85.6757C84.9557 17.3531 83.8517 16.7051 82.2197 16.7051C79.1717 16.7051 77.0597 19.2491 77.0597 22.8491C77.0597 26.6171 79.6277 28.6811 82.3877 28.6811C83.8757 28.6811 84.8117 28.0811 85.5317 27.2651H85.6277V28.4891C85.6277 29.9771 84.9317 30.8411 83.2757 30.8411C81.9797 30.8411 81.3317 30.2891 81.1157 29.6411H77.3237C77.7077 32.2091 79.9397 33.6011 83.3237 33.6011ZM83.2997 25.7771C81.8357 25.7771 80.8757 24.5771 80.8757 22.7291C80.8757 20.8571 81.8357 19.6571 83.2997 19.6571C84.9317 19.6571 85.7957 21.0491 85.7957 22.7051C85.7957 24.4331 85.0037 25.7771 83.2997 25.7771Z" fill="#FFFEF5"/>
<path d="M97.166 26.953C95.462 26.953 94.574 25.465 94.574 23.233C94.574 21.001 95.462 19.489 97.166 19.489C98.87 19.489 99.782 21.001 99.782 23.233C99.782 25.465 98.87 26.953 97.166 26.953ZM97.19 29.737C101.15 29.737 103.742 26.929 103.742 23.233C103.742 19.537 101.15 16.729 97.19 16.729C93.254 16.729 90.614 19.537 90.614 23.233C90.614 26.929 93.254 29.737 97.19 29.737Z" fill="#FFFEF5"/>
<path d="M104.884 29.3534H108.796V17.0654H104.884V29.3534ZM104.884 15.3614H108.796V12.1934H104.884V15.3614Z" fill="#FFFEF5"/>
<path d="M110.494 33.4091H114.406V28.0811H114.454C115.222 29.1131 116.35 29.7371 117.934 29.7371C121.15 29.7371 123.286 27.1931 123.286 23.2091C123.286 19.5131 121.294 16.7051 118.03 16.7051C116.35 16.7051 115.15 17.4491 114.31 18.5531H114.238V17.0651H110.494V33.4091ZM116.926 26.7131C115.246 26.7131 114.286 25.3451 114.286 23.3531C114.286 21.3611 115.15 19.8491 116.854 19.8491C118.534 19.8491 119.326 21.2411 119.326 23.3531C119.326 25.4411 118.414 26.7131 116.926 26.7131Z" fill="#FFFEF5"/>
<path d="M129.655 29.7371C132.871 29.7371 135.247 28.3451 135.247 25.6571C135.247 22.5131 132.703 21.9611 130.543 21.6011C128.983 21.3131 127.591 21.1931 127.591 20.3291C127.591 19.5611 128.335 19.2011 129.295 19.2011C130.375 19.2011 131.119 19.5371 131.263 20.6411H134.863C134.671 18.2171 132.799 16.7051 129.319 16.7051C126.415 16.7051 124.015 18.0491 124.015 20.6411C124.015 23.5211 126.295 24.0971 128.431 24.4571C130.063 24.7451 131.551 24.8651 131.551 25.9691C131.551 26.7611 130.807 27.1931 129.631 27.1931C128.335 27.1931 127.519 26.5931 127.375 25.3691H123.679C123.799 28.0811 126.055 29.7371 129.655 29.7371Z" fill="#FFFEF5"/>
<path d="M140.561 29.7134C142.265 29.7134 143.345 29.0414 144.233 27.8414H144.305V29.3534H148.049V17.0654H144.137V23.9294C144.137 25.3934 143.321 26.4014 141.977 26.4014C140.729 26.4014 140.129 25.6574 140.129 24.3134V17.0654H136.241V25.1294C136.241 27.8654 137.729 29.7134 140.561 29.7134Z" fill="#FFFEF5"/>
<path d="M149.75 29.3531H153.662V22.4651C153.662 21.0011 154.382 19.9691 155.606 19.9691C156.782 19.9691 157.334 20.7371 157.334 22.0571V29.3531H161.246V22.4651C161.246 21.0011 161.942 19.9691 163.19 19.9691C164.366 19.9691 164.918 20.7371 164.918 22.0571V29.3531H168.83V21.3611C168.83 18.6011 167.438 16.7051 164.654 16.7051C163.07 16.7051 161.75 17.3771 160.79 18.8651H160.742C160.118 17.5451 158.894 16.7051 157.286 16.7051C155.51 16.7051 154.334 17.5451 153.566 18.8171H153.494V17.0651H149.75V29.3531Z" fill="#FFFEF5"/>
<path fill-rule="evenodd" clip-rule="evenodd" d="M20.6842 0.961914C31.946 0.961914 41.0755 10.0914 41.0755 21.3532C41.0755 32.6151 31.946 41.7446 20.6842 41.7446C9.42234 41.7446 0.292847 32.6151 0.292847 21.3532C0.292847 10.0914 9.42234 0.961914 20.6842 0.961914ZM40.2928 21.3532C40.2928 10.5237 31.5137 1.74454 20.6842 1.74454C19.8106 1.74454 18.9505 1.80165 18.1071 1.91237C18.652 1.86472 19.2034 1.84041 19.7606 1.84041C30.1088 1.84041 38.4977 10.2293 38.4977 20.5775C38.4977 30.9256 30.1088 39.3145 19.7606 39.3145C9.96366 39.3145 1.92284 31.7956 1.09401 22.2135C1.54426 32.6439 10.1428 40.9619 20.6842 40.9619C31.5137 40.9619 40.2928 32.1828 40.2928 21.3532ZM37.715 20.5775C37.715 10.6615 29.6766 2.62303 19.7606 2.62303C18.9555 2.62303 18.1627 2.67603 17.3856 2.77872C17.8641 2.73846 18.3482 2.71793 18.8371 2.71793C28.2717 2.71793 35.9199 10.3662 35.9199 19.8007C35.9199 29.2353 28.2717 36.8835 18.8371 36.8835C9.91648 36.8835 2.59287 30.0458 1.8215 21.3256C2.21369 30.8946 10.0953 38.5319 19.7606 38.5319C29.6766 38.5319 37.715 30.4934 37.715 20.5775ZM18.8371 3.50056C27.8394 3.50056 35.1373 10.7984 35.1373 19.8007C35.1373 28.803 27.8394 36.1008 18.8371 36.1008C10.0434 36.1008 2.87602 29.1372 2.54867 20.4235C3.25542 28.2885 9.86471 34.4524 17.9137 34.4524C26.434 34.4524 33.3412 27.5453 33.3412 19.0249C33.3412 10.5045 26.434 3.59739 17.9137 3.59739C17.4729 3.59739 17.0364 3.61588 16.605 3.65211C17.3348 3.55218 18.0799 3.50056 18.8371 3.50056ZM32.5585 19.0249C32.5585 10.9368 26.0018 4.38003 17.9137 4.38003C17.2303 4.38003 16.5578 4.42682 15.8994 4.5174C16.2589 4.48926 16.6223 4.47493 16.9891 4.47493C24.5959 4.47493 30.7624 10.6414 30.7624 18.2482C30.7624 25.8549 24.5959 32.0214 16.9891 32.0214C9.82947 32.0214 3.94576 26.5585 3.27885 19.5736C3.56738 27.4075 10.0092 33.6698 17.9137 33.6698C26.0018 33.6698 32.5585 27.1131 32.5585 19.0249ZM16.9891 5.25756C24.1636 5.25756 29.9797 11.0737 29.9797 18.2482C29.9797 25.4227 24.1636 31.2388 16.9891 31.2388C9.95594 31.2388 4.2282 25.6496 4.00526 18.6706C4.60739 24.8008 9.77718 29.5904 16.0656 29.5904C22.7588 29.5904 28.1846 24.1645 28.1846 17.4714C28.1846 10.7783 22.7588 5.35245 16.0656 5.35245C15.7587 5.35245 15.4544 5.36386 15.1532 5.38628C15.753 5.30144 16.3659 5.25756 16.9891 5.25756ZM27.402 17.4714C27.402 11.2105 22.3265 6.13508 16.0656 6.13508C15.4941 6.13508 14.9325 6.17736 14.3837 6.25899C14.6342 6.24104 14.8871 6.23191 15.1422 6.23191C20.9211 6.23191 25.6059 10.9167 25.6059 16.6956C25.6059 22.4746 20.9211 27.1593 15.1422 27.1593C9.72697 27.1593 5.27257 23.0458 4.73324 17.773C4.89313 23.8945 9.90561 28.8078 16.0656 28.8078C22.3265 28.8078 27.402 23.7323 27.402 17.4714ZM15.1422 7.01455C20.4889 7.01455 24.8232 11.3489 24.8232 16.6956C24.8232 22.0424 20.4889 26.3767 15.1422 26.3767C9.86348 26.3767 5.57156 22.152 5.46317 16.8993C5.9508 21.3032 9.68475 24.7283 14.2187 24.7283C19.084 24.7283 23.0281 20.7842 23.0281 15.9189C23.0281 11.0536 19.084 7.10944 14.2187 7.10944C14.0326 7.10944 13.8479 7.1152 13.6647 7.12657C14.1464 7.0528 14.6398 7.01455 15.1422 7.01455ZM22.2455 15.9189C22.2455 11.4858 18.6518 7.89207 14.2187 7.89207C13.7735 7.89207 13.3368 7.92831 12.9113 7.998C13.0381 7.99132 13.1657 7.98794 13.2942 7.98794C17.2458 7.98794 20.4493 11.1914 20.4493 15.1431C20.4493 19.0948 17.2458 22.2983 13.2942 22.2983C9.64023 22.2983 6.626 19.5593 6.19252 16.0225C6.24802 20.4079 9.8202 23.9457 14.2187 23.9457C18.6518 23.9457 22.2455 20.352 22.2455 15.9189ZM13.2942 8.77056C16.8136 8.77056 19.6667 11.6236 19.6667 15.1431C19.6667 18.6626 16.8136 21.5156 13.2942 21.5156C9.77471 21.5156 6.92163 18.6626 6.92163 15.1431C6.92163 15.1347 6.92165 15.1262 6.92168 15.1178C7.2881 17.7998 9.58806 19.8663 12.3707 19.8663C15.4082 19.8663 17.8706 17.4039 17.8706 14.3664C17.8706 11.3288 15.4082 8.86645 12.3707 8.86645C12.302 8.86645 12.2336 8.86769 12.1655 8.87019C12.5318 8.80472 12.909 8.77056 13.2942 8.77056ZM17.0879 14.3664C17.0879 11.7611 14.976 9.64907 12.3707 9.64907C9.7654 9.64907 7.6534 11.7611 7.6534 14.3664C7.6534 16.9716 9.7654 19.0836 12.3707 19.0836C14.976 19.0836 17.0879 16.9716 17.0879 14.3664Z" fill="#FFFEF5"/>
</g>
<defs>
<clipPath id="clip0_250_223">
<rect width="169" height="42" fill="white"/>
</clipPath>
</defs>
</svg>
