<svg width="420" height="237" viewBox="0 0 420 237" fill="none" xmlns="http://www.w3.org/2000/svg">
<path d="M52 191.667C55.6819 191.667 58.6667 188.682 58.6667 185C58.6667 181.319 55.6819 178.334 52 178.334C48.3181 178.334 45.3334 181.319 45.3334 185C45.3334 188.682 48.3181 191.667 52 191.667Z" stroke="#FFFDF5" stroke-width="2.5" stroke-linecap="round" stroke-linejoin="round"/>
<path d="M37 191.667V178.334C37 173.731 40.731 170 45.3333 170H58.6667C63.269 170 67 173.731 67 178.334V191.667C67 196.27 63.269 200 58.6667 200H45.3333C40.731 200 37 196.27 37 191.667Z" stroke="#FFFDF5" stroke-width="2.5"/>
<path d="M61.1666 175.85L61.1833 175.832" stroke="#FFFDF5" stroke-width="2.5" stroke-linecap="round" stroke-linejoin="round"/>
<path d="M111.662 183.696C120.113 183.696 120.113 195 111.662 195C106.895 195 101.333 195 101.333 195V183.696M111.662 183.696C106.895 183.696 101.333 183.696 101.333 183.696M111.662 183.696C120.113 183.696 120.113 173.333 111.662 173.333C107.906 173.333 101.333 173.333 101.333 173.333V183.696" stroke="#FFFDF5" stroke-width="2.5" stroke-linecap="round" stroke-linejoin="round"/>
<path d="M128 180C124.318 180 121.333 183.358 121.333 187.5H134.667C134.667 183.358 131.682 180 128 180Z" stroke="#FFFDF5" stroke-width="2.5" stroke-linecap="round" stroke-linejoin="round"/>
<path d="M121.333 187.5C121.333 191.642 124.318 195 128 195C132.592 195 133.833 191.667 133.833 191.667" stroke="#FFFDF5" stroke-width="2.5" stroke-linecap="round" stroke-linejoin="round"/>
<path d="M132.167 175H123.833" stroke="#FFFDF5" stroke-width="2.5" stroke-linecap="round" stroke-linejoin="round"/>
<path d="M167.333 185C167.333 194.204 174.795 201.666 184 201.666C193.205 201.666 200.667 194.204 200.667 185C200.667 175.795 193.205 168.333 184 168.333C174.795 168.333 167.333 175.795 167.333 185Z" stroke="#FFFDF5" stroke-width="2.5" stroke-linecap="round" stroke-linejoin="round"/>
<path d="M191.788 199.739C189.833 188.333 184.833 178.333 178.167 169.382" stroke="#FFFDF5" stroke-width="2.5" stroke-linecap="round" stroke-linejoin="round"/>
<path d="M167.444 183.067C174 183.333 189.472 182.5 195.902 173.333" stroke="#FFFDF5" stroke-width="2.5" stroke-linecap="round" stroke-linejoin="round"/>
<path d="M200.613 186.35C189.573 183.067 176.5 188.333 172.719 197.268" stroke="#FFFDF5" stroke-width="2.5" stroke-linecap="round" stroke-linejoin="round"/>
<rect x="251.5" y="87.5" width="136" height="49" rx="24.5" fill="#FFFEF5"/>
<path d="M272.804 120V104.732H274.872V120H272.804ZM277.948 109.594L279.312 106.976L280.016 106.8C279.943 106.961 279.847 107.093 279.73 107.196C279.627 107.299 279.495 107.35 279.334 107.35C279.026 107.35 278.74 107.225 278.476 106.976C278.227 106.712 278.102 106.389 278.102 106.008C278.102 105.597 278.241 105.245 278.52 104.952C278.813 104.659 279.165 104.512 279.576 104.512C279.957 104.512 280.295 104.659 280.588 104.952C280.881 105.245 281.028 105.597 281.028 106.008C281.028 106.169 280.991 106.367 280.918 106.602C280.859 106.822 280.735 107.115 280.544 107.482L279.092 110.21L277.948 109.594ZM282.722 120V109.55H284.702V120H282.722ZM289.784 120V113.686C289.784 112.909 289.542 112.3 289.058 111.86C288.588 111.405 287.994 111.178 287.276 111.178C286.792 111.178 286.359 111.281 285.978 111.486C285.596 111.691 285.288 111.977 285.054 112.344C284.819 112.711 284.702 113.151 284.702 113.664L283.888 113.268C283.888 112.476 284.056 111.787 284.394 111.2C284.746 110.613 285.222 110.159 285.824 109.836C286.425 109.499 287.1 109.33 287.848 109.33C288.581 109.33 289.241 109.491 289.828 109.814C290.429 110.137 290.898 110.591 291.236 111.178C291.588 111.765 291.764 112.461 291.764 113.268V120H289.784ZM296.846 120V113.686C296.846 112.909 296.604 112.3 296.12 111.86C295.65 111.405 295.064 111.178 294.36 111.178C293.876 111.178 293.436 111.281 293.04 111.486C292.658 111.691 292.35 111.977 292.116 112.344C291.881 112.711 291.764 113.151 291.764 113.664L290.642 113.268C290.686 112.461 290.898 111.772 291.28 111.2C291.676 110.613 292.182 110.159 292.798 109.836C293.414 109.499 294.088 109.33 294.822 109.33C295.584 109.33 296.266 109.491 296.868 109.814C297.469 110.137 297.946 110.591 298.298 111.178C298.664 111.765 298.848 112.469 298.848 113.29V120H296.846ZM311.618 120.22C310.826 120.22 310.107 120.059 309.462 119.736C308.831 119.399 308.325 118.937 307.944 118.35C307.563 117.763 307.35 117.096 307.306 116.348V113.202C307.35 112.439 307.563 111.772 307.944 111.2C308.34 110.613 308.853 110.159 309.484 109.836C310.129 109.499 310.841 109.33 311.618 109.33C312.571 109.33 313.429 109.572 314.192 110.056C314.969 110.54 315.578 111.193 316.018 112.014C316.458 112.835 316.678 113.759 316.678 114.786C316.678 115.813 316.458 116.737 316.018 117.558C315.578 118.379 314.969 119.032 314.192 119.516C313.429 119.985 312.571 120.22 311.618 120.22ZM311.288 118.35C311.948 118.35 312.527 118.196 313.026 117.888C313.525 117.58 313.921 117.162 314.214 116.634C314.507 116.091 314.654 115.468 314.654 114.764C314.654 114.075 314.507 113.459 314.214 112.916C313.921 112.373 313.525 111.955 313.026 111.662C312.527 111.354 311.955 111.2 311.31 111.2C310.65 111.2 310.071 111.354 309.572 111.662C309.073 111.955 308.685 112.373 308.406 112.916C308.127 113.459 307.988 114.082 307.988 114.786C307.988 115.475 308.12 116.091 308.384 116.634C308.663 117.162 309.051 117.58 309.55 117.888C310.063 118.196 310.643 118.35 311.288 118.35ZM306.118 120V104.292H308.098V112.102L307.724 114.632L308.098 117.184V120H306.118ZM323.125 120.22C322.274 120.22 321.504 120.029 320.815 119.648C320.14 119.252 319.612 118.709 319.231 118.02C318.849 117.331 318.659 116.531 318.659 115.622V109.55H320.639V115.534C320.639 116.106 320.734 116.605 320.925 117.03C321.13 117.441 321.423 117.756 321.805 117.976C322.186 118.196 322.633 118.306 323.147 118.306C323.924 118.306 324.533 118.064 324.973 117.58C325.413 117.081 325.633 116.399 325.633 115.534V109.55H327.613V115.622C327.613 116.531 327.422 117.331 327.041 118.02C326.659 118.709 326.131 119.252 325.457 119.648C324.797 120.029 324.019 120.22 323.125 120.22ZM331.872 120V105.172H333.852V120H331.872ZM329.298 111.354V109.55H342.652V111.354H329.298ZM338.098 120V105.172H340.078V120H338.098ZM349.048 120.22C348.022 120.22 347.098 119.978 346.276 119.494C345.455 119.01 344.802 118.357 344.318 117.536C343.834 116.7 343.592 115.769 343.592 114.742C343.592 113.73 343.834 112.821 344.318 112.014C344.802 111.193 345.455 110.54 346.276 110.056C347.098 109.572 348.022 109.33 349.048 109.33C350.06 109.33 350.977 109.572 351.798 110.056C352.634 110.525 353.294 111.171 353.778 111.992C354.262 112.813 354.504 113.73 354.504 114.742C354.504 115.769 354.262 116.7 353.778 117.536C353.294 118.357 352.634 119.01 351.798 119.494C350.977 119.978 350.06 120.22 349.048 120.22ZM349.048 118.306C349.708 118.306 350.295 118.152 350.808 117.844C351.322 117.536 351.725 117.118 352.018 116.59C352.312 116.047 352.458 115.431 352.458 114.742C352.458 114.067 352.304 113.466 351.996 112.938C351.703 112.41 351.3 111.999 350.786 111.706C350.288 111.398 349.708 111.244 349.048 111.244C348.388 111.244 347.802 111.398 347.288 111.706C346.775 111.999 346.372 112.41 346.078 112.938C345.785 113.466 345.638 114.067 345.638 114.742C345.638 115.431 345.785 116.047 346.078 116.59C346.372 117.118 346.775 117.536 347.288 117.844C347.802 118.152 348.388 118.306 349.048 118.306ZM364.127 120V113.906C364.127 113.114 363.878 112.461 363.379 111.948C362.881 111.435 362.235 111.178 361.443 111.178C360.915 111.178 360.446 111.295 360.035 111.53C359.625 111.765 359.302 112.087 359.067 112.498C358.833 112.909 358.715 113.378 358.715 113.906L357.901 113.444C357.901 112.652 358.077 111.948 358.429 111.332C358.781 110.716 359.273 110.232 359.903 109.88C360.534 109.513 361.245 109.33 362.037 109.33C362.829 109.33 363.526 109.528 364.127 109.924C364.743 110.32 365.227 110.841 365.579 111.486C365.931 112.117 366.107 112.791 366.107 113.51V120H364.127ZM356.735 120V109.55H358.715V120H356.735Z" fill="black"/>
<rect x="251.5" y="87.5" width="136" height="49" rx="24.5" stroke="black"/>
<rect x="251" y="162.977" width="44.0471" height="44.0471" rx="5.50588" fill="#FFFDF5"/>
<path d="M275.597 174.088C281.583 175.55 285.251 181.587 283.79 187.573C282.329 193.559 276.292 197.228 270.306 195.767C264.319 194.306 260.651 188.268 262.112 182.282C263.573 176.296 269.61 172.627 275.597 174.088Z" fill="black"/>
<path d="M280.157 187.607C278.82 191.212 274.953 193.329 271.129 192.396L271.229 191.983C275.12 192.933 279.058 190.539 280.006 186.65C280.956 182.759 278.563 178.822 274.673 177.872L274.774 177.459C278.892 178.464 281.425 182.632 280.419 186.75C280.348 187.044 280.26 187.331 280.157 187.607Z" fill="#FFFDF5"/>
<path d="M268.015 185.448C269.814 185.888 271.144 186.769 270.985 187.418C270.827 188.067 269.24 188.237 267.442 187.798C265.643 187.359 264.313 186.477 264.471 185.828C264.63 185.179 266.216 185.009 268.015 185.448Z" fill="#FFFDF5"/>
<path d="M269.384 179.842C271.182 180.281 272.512 181.163 272.354 181.812C272.196 182.46 270.609 182.63 268.81 182.191C267.011 181.752 265.681 180.871 265.84 180.222C265.998 179.573 267.585 179.403 269.384 179.842Z" fill="#FFFDF5"/>
<path d="M271.54 193.302C271.519 193.358 271.475 193.405 271.415 193.427C271.305 193.469 271.183 193.413 271.141 193.303C270.871 192.58 270.896 191.859 271.216 191.158C271.265 191.051 271.391 191.004 271.498 191.053C271.605 191.102 271.652 191.228 271.603 191.335C271.327 191.937 271.307 192.532 271.539 193.154C271.558 193.204 271.557 193.256 271.54 193.302Z" fill="#FFFDF5"/>
<path d="M275.545 176.892C275.533 176.923 275.514 176.952 275.488 176.976C274.995 177.421 274.739 177.959 274.706 178.62C274.7 178.738 274.6 178.827 274.483 178.821C274.366 178.816 274.275 178.716 274.281 178.599C274.32 177.83 274.63 177.177 275.203 176.66C275.29 176.582 275.425 176.589 275.503 176.676C275.558 176.737 275.572 176.821 275.545 176.892Z" fill="#FFFDF5"/>
<rect x="300.976" y="162.977" width="44.0471" height="44.0471" rx="5.50588" fill="#FFFDF5"/>
<path d="M333.288 189.069C331.001 194.79 324.508 197.575 318.786 195.288C313.065 193.001 310.28 186.509 312.567 180.787C314.854 175.065 321.347 172.28 327.068 174.567C332.79 176.854 335.575 183.347 333.288 189.069Z" fill="black"/>
<path d="M319.262 191.686C315.881 189.856 314.328 185.73 315.789 182.075L316.184 182.232C314.697 185.951 316.514 190.186 320.232 191.671C323.95 193.158 328.185 191.341 329.671 187.623L330.066 187.781C328.493 191.717 324.01 193.639 320.074 192.066C319.793 191.954 319.522 191.826 319.262 191.686Z" fill="#FFFDF5"/>
<path d="M323.105 179.967C322.417 181.687 321.358 182.88 320.737 182.632C320.117 182.384 320.172 180.789 320.859 179.07C321.546 177.35 322.606 176.157 323.226 176.405C323.846 176.653 323.792 178.248 323.105 179.967Z" fill="#FFFDF5"/>
<path d="M328.464 182.109C327.776 183.829 326.716 185.022 326.096 184.774C325.476 184.526 325.531 182.931 326.218 181.212C326.905 179.492 327.965 178.299 328.585 178.547C329.205 178.795 329.151 180.39 328.464 182.109Z" fill="#FFFDF5"/>
<path d="M314.834 182.355C314.781 182.326 314.741 182.276 314.727 182.213C314.702 182.099 314.774 181.986 314.889 181.96C315.642 181.794 316.353 181.92 317.002 182.335C317.101 182.398 317.13 182.53 317.067 182.629C317.004 182.728 316.872 182.757 316.773 182.693C316.215 182.335 315.629 182.232 314.981 182.375C314.929 182.387 314.877 182.378 314.834 182.355Z" fill="#FFFDF5"/>
<path d="M330.519 188.624C330.49 188.608 330.464 188.585 330.444 188.556C330.073 188.005 329.576 187.676 328.926 187.551C328.811 187.528 328.736 187.417 328.758 187.301C328.78 187.186 328.892 187.111 329.007 187.133C329.763 187.28 330.365 187.678 330.796 188.318C330.862 188.415 330.836 188.548 330.739 188.613C330.671 188.659 330.586 188.66 330.519 188.624Z" fill="#FFFDF5"/>
<rect x="350.953" y="162.977" width="44.0471" height="44.0471" rx="5.50588" fill="#FFFDF5"/>
<path d="M369.141 195.431C363.34 193.353 360.322 186.966 362.4 181.165C364.479 175.364 370.866 172.346 376.667 174.424C382.468 176.502 385.486 182.89 383.407 188.691C381.329 194.492 374.942 197.51 369.141 195.431Z" fill="black"/>
<path d="M366.017 181.51C367.724 178.064 371.791 176.363 375.496 177.691L375.353 178.091C371.583 176.74 367.417 178.709 366.067 182.478C364.716 186.248 366.685 190.414 370.454 191.764L370.311 192.165C366.321 190.735 364.237 186.325 365.667 182.335C365.769 182.05 365.886 181.775 366.017 181.51Z" fill="#FFFDF5"/>
<path d="M377.867 184.925C376.124 184.3 374.894 183.285 375.119 182.656C375.344 182.027 376.94 182.024 378.683 182.648C380.426 183.273 381.657 184.289 381.431 184.917C381.206 185.546 379.61 185.55 377.867 184.925Z" fill="#FFFDF5"/>
<path d="M375.921 190.358C374.178 189.734 372.947 188.717 373.172 188.089C373.397 187.46 374.993 187.457 376.736 188.081C378.479 188.706 379.71 189.722 379.485 190.35C379.259 190.979 377.664 190.982 375.921 190.358Z" fill="#FFFDF5"/>
<path d="M375.182 176.746C375.208 176.693 375.257 176.651 375.319 176.635C375.433 176.605 375.549 176.673 375.578 176.787C375.772 177.534 375.671 178.249 375.28 178.912C375.22 179.014 375.09 179.047 374.989 178.988C374.888 178.928 374.854 178.798 374.914 178.696C375.251 178.126 375.333 177.536 375.167 176.893C375.153 176.842 375.16 176.79 375.182 176.746Z" fill="#FFFDF5"/>
<path d="M369.485 192.648C369.5 192.618 369.522 192.591 369.55 192.571C370.087 192.18 370.398 191.672 370.5 191.017C370.518 190.901 370.627 190.822 370.743 190.84C370.859 190.858 370.938 190.967 370.92 191.083C370.801 191.844 370.425 192.46 369.8 192.914C369.706 192.983 369.573 192.962 369.504 192.867C369.455 192.801 369.451 192.716 369.485 192.648Z" fill="#FFFDF5"/>
<path d="M109.033 115.191C109.033 116.545 110.13 117.642 111.484 117.642C112.837 117.642 118.02 116.545 118.02 115.191C118.02 113.838 112.837 112.74 111.484 112.74C110.13 112.74 109.033 113.838 109.033 115.191Z" fill="#FFFDF5"/>
<path d="M48.1773 127.036C45.7118 127.036 43.4248 126.598 41.3161 125.722C39.2399 124.814 37.4232 123.565 35.8661 121.975C34.3089 120.353 33.1086 118.488 32.2652 116.379C31.4217 114.238 31 111.951 31 109.518C31 107.085 31.4217 104.814 32.2652 102.705C33.1086 100.564 34.3089 98.699 35.8661 97.1094C37.4232 95.5198 39.2399 94.2708 41.3161 93.3625C43.4248 92.4542 45.7118 92 48.1773 92C50.9348 92 53.3192 92.4542 55.3305 93.3625C57.3418 94.2708 59.126 95.5036 60.6832 97.0607L56.8876 100.856C55.882 99.7533 54.6492 98.8936 53.1894 98.2773C51.762 97.6609 50.0913 97.3527 48.1773 97.3527C46.4904 97.3527 44.9495 97.6447 43.5545 98.2286C42.1596 98.8125 40.9431 99.656 39.905 100.759C38.8993 101.83 38.1207 103.111 37.5692 104.603C37.0177 106.095 36.742 107.734 36.742 109.518C36.742 111.302 37.0177 112.94 37.5692 114.433C38.1207 115.925 38.8993 117.223 39.905 118.326C40.9431 119.396 42.1596 120.223 43.5545 120.807C44.9495 121.391 46.4904 121.683 48.1773 121.683C50.2535 121.683 52.0053 121.375 53.4327 120.759C54.8925 120.11 56.1253 119.234 57.1309 118.131L60.9265 121.926C59.3693 123.516 57.5364 124.765 55.4278 125.673C53.3192 126.582 50.9023 127.036 48.1773 127.036Z" fill="#FFFEF5"/>
<path d="M64.9708 126.988V94.1437H70.3235V126.988H64.9708Z" fill="#FFFEF5"/>
<path d="M82.9464 128.985L72.9709 105.384H78.8589L85.6714 122.707H83.9683L91.1701 105.384H97.1067L86.2553 128.985H82.9464ZM80.3717 131.459L83.2384 123.534L86.2553 128.985L85.2124 131.459H80.3717Z" fill="#FFFEF5"/>
<path d="M109.183 127.474C107.074 127.474 105.16 126.939 103.441 125.868C101.754 124.798 100.407 123.354 99.4018 121.538C98.4286 119.689 97.9419 117.629 97.9419 115.358C97.9419 113.054 98.4286 110.994 99.4018 109.178C100.407 107.329 101.754 105.869 103.441 104.798C105.16 103.695 107.074 103.144 109.183 103.144C110.967 103.144 126.568 103.459 130.123 104.531C133.678 105.602 133.717 106.096 134.528 107.426C135.339 108.756 135.745 110.265 135.745 111.951V118.667C135.745 120.354 135.339 121.862 134.528 123.192C133.749 124.522 133.446 124.92 130.172 126.136C126.897 127.352 110.967 127.474 109.183 127.474ZM110.059 122.414C111.389 122.414 129.857 122.122 130.83 121.538C131.835 120.921 132.614 120.078 133.165 119.007C133.717 117.937 133.993 116.704 133.993 115.309C133.993 113.914 133.717 112.681 133.165 111.611C132.614 110.54 131.835 109.713 130.83 109.129C129.857 108.513 111.389 108.205 110.059 108.205C108.761 108.205 107.609 108.513 106.604 109.129C105.63 109.713 104.852 110.54 104.268 111.611C103.716 112.681 103.441 113.914 103.441 115.309C103.441 116.704 103.716 117.937 104.268 119.007C104.852 120.078 105.63 120.921 106.604 121.538C107.609 122.122 108.761 122.414 110.059 122.414ZM139.882 126.988H133.652V120.71L134.577 115.017L133.652 109.372V94.1437H139.882V126.988Z" fill="#FFFEF5"/>
<path d="M155.149 127.036C152.813 127.036 150.704 126.517 148.823 125.479C146.974 124.408 145.498 122.948 144.395 121.099C143.324 119.25 142.789 117.174 142.789 114.871C142.789 112.567 143.324 110.507 144.395 108.691C145.465 106.842 146.909 105.382 148.725 104.311C150.574 103.241 152.618 102.705 154.857 102.705C157.03 102.705 158.944 103.208 160.599 104.214C162.286 105.22 163.599 106.598 164.54 108.35C165.513 110.102 166 112.097 166 114.335C166 114.725 165.968 115.13 165.903 115.552C165.87 115.941 165.805 116.379 165.708 116.866H146.536V112.486H162.934L160.939 114.238C160.874 112.811 160.599 111.61 160.112 110.637C159.625 109.664 158.928 108.918 158.02 108.399C157.144 107.88 156.057 107.62 154.759 107.62C153.397 107.62 152.213 107.912 151.207 108.496C150.201 109.08 149.423 109.907 148.871 110.978C148.32 112.016 148.044 113.265 148.044 114.725C148.044 116.185 148.336 117.466 148.92 118.569C149.504 119.672 150.331 120.532 151.402 121.148C152.472 121.732 153.705 122.024 155.1 122.024C156.3 122.024 157.403 121.813 158.409 121.391C159.447 120.969 160.323 120.353 161.037 119.542L164.443 122.997C163.307 124.327 161.929 125.333 160.307 126.014C158.685 126.695 156.965 127.036 155.149 127.036Z" fill="#FFFEF5"/>
</svg>
