<?xml version="1.0" encoding="UTF-8"?>
<svg id="_Слой_1" data-name="Слой 1" xmlns="http://www.w3.org/2000/svg" viewBox="0 0 500.49 149.4">
  <defs>
    <style>
      .cls-1 {
        fill: #fff;
        stroke-width: 0px;
      }
    </style>
  </defs>
  <g>
    <path class="cls-1" d="m18.39,31.76h20.25l-5.67,27.19,14.01,9.3-5.54,26.36-31.64-22.03,8.59-40.81Zm39.92-1.15h20.31l-19.55,92.06-16.49-18.21,15.73-73.85Z"/>
    <path class="cls-1" d="m84.09,31.76h20.25l-5.67,27.19,14.01,9.3-5.54,26.36-31.58-22.03,8.53-40.81Zm39.85-1.15h20.31l-19.55,92.06-16.49-18.21,15.73-73.85Z"/>
  </g>
  <g>
    <g>
      <ellipse class="cls-1" cx="163.08" cy="97.47" rx="3.12" ry="6.94" transform="translate(10.98 211.31) rotate(-67.68)"/>
      <path class="cls-1" d="m234.22,117.01c-.64,1.97-1.78,3.82-3.31,5.28-2.29,2.23-5.35,3.5-8.53,3.57l-43.74.95c-5.54.13-10.7-2.29-14.13-6.56l-22.16-27.25c-2.86-3.57-4.01-8.15-3.06-12.61l9.68-45.97c.7-3.25,3.25-5.67,6.49-6.24l48-8.34c2.67-.45,5.35-.06,7.77,1.15,2.42,1.21,4.33,3.12,5.54,5.54l18.59,36.61c1.53,2.93,2.16,6.24,1.97,9.55l-2.48,41.26c-.13,1.02-.32,2.1-.64,3.06Zm-94.03-36.35l.95.19c-.83,3.88.13,7.89,2.67,11.01l22.16,27.25c3.12,3.82,7.7,5.92,12.61,5.86l43.74-.95c5.6-.13,10.25-4.58,10.57-10.19l2.48-41.26c.19-2.99-.45-5.92-1.78-8.59l-18.59-36.61c-2.1-4.2-6.68-6.43-11.27-5.67l-48,8.4c-2.48.45-4.46,2.29-4.97,4.77l-9.68,45.97-.89-.19Z"/>
      <path class="cls-1" d="m225.81,123.25c-.06.25-.19.45-.32.64-.7,1.21-2.1,1.66-3.18,1.72l-42.85.95c-5.09.06-10.38-.64-14.45-5.98l-21.46-27.95c-.89-1.21-1.08-2.74-.51-4.07.64-1.4,1.85-2.29,3.37-2.36l49.85-4.01c3.63-.32,7.07,1.46,8.98,4.65l20.12,33.42h0c.7,1.27.7,2.23.45,2.99Zm-81.62-33.93c-.25.83-.13,1.78.45,2.48l21.46,27.95c3.5,4.58,7.89,5.54,13.37,5.48l42.78-.95c.7,0,1.66-.32,2.1-1.08.38-.64.32-1.46-.13-2.42l-19.99-33.36c-1.66-2.74-4.65-4.27-7.77-4.01l-49.85,4.01c-1.02.06-1.91.7-2.29,1.66-.06.06-.06.13-.13.25Z"/>
      <path class="cls-1" d="m234.09,116.43c-.38,1.21-1.34,2.1-2.61,2.36-1.59.38-3.12-.25-3.95-1.72l-19.23-32.79c-1.46-2.48-2.04-5.35-1.66-8.21l6.05-48.64c.13-.76.83-1.46,1.72-1.59.89-.19,1.66.19,2.04.83,4.71,9.04,17.83,35.14,19.04,37.5,1.27,2.55,1.46,5.92,1.53,6.05v.06l-2.74,45.14c-.06.45-.13.76-.19,1.02Zm-20.12-88.81l-6.05,48.64c-.32,2.55.19,5.16,1.53,7.39l19.16,32.85c.64,1.08,1.72,1.27,2.55,1.08s1.72-.83,1.78-2.16l2.74-45.14c0-.38-.32-3.37-1.34-5.54-1.15-2.36-14.26-28.46-18.97-37.5-.06-.19-.38-.19-.64-.19-.45.13-.76.38-.76.57h0Z"/>
      <g>
        <path class="cls-1" d="m202.38,74.8c-.7,2.16-2.67,3.76-4.97,3.95l-52.59,3.82c-1.34.13-2.67-.45-3.57-1.46-.89-1.02-1.27-2.42-.95-3.76l9.42-43.04c.7-3.06,3.12-5.41,6.24-5.92l48.51-8.02c1.27-.19,2.55.19,3.5,1.08.95.89,1.4,2.16,1.21,3.44l-6.62,48.96c0,.32-.06.64-.19.95Zm-51.25-40.81c-.06.19-.13.38-.13.57l-9.36,43.04c-.19.95.06,1.91.7,2.61s1.53,1.08,2.48,1.02l52.59-3.82c2.04-.13,3.76-1.72,4.01-3.76l6.62-48.9c.13-.89-.19-1.78-.83-2.36-.64-.64-1.53-.89-2.42-.76l-48.58,8.02c-2.48.38-4.39,2.04-5.09,4.33Z"/>
        <g>
          <ellipse class="cls-1" cx="161.76" cy="40.74" rx="6.49" ry="4.39" transform="translate(35.47 149.72) rotate(-54.93)"/>
          <path class="cls-1" d="m167.69,35.26c.38.32.76.7,1.02,1.15s.45.95.57,1.46c.13.51.19,1.02.19,1.59,0,.51,0,1.08-.13,1.59-.06.25-.06.51-.13.76,0,.13-.06.25-.13.38-.06.13-.06.25-.13.38l-.13.38c-.06.13-.13.25-.13.38-.06.13-.13.25-.19.38l-.19.38c-.06.13-.13.25-.19.38l-.19.32c-.13.25-.25.45-.45.7-.32.45-.64.83-1.02,1.21-.38.38-.76.76-1.21,1.08-.45.32-.89.64-1.4.89-.51.25-1.02.51-1.53.64-.13.06-.25.06-.38.13-.13.06-.25.06-.45.06-.25.06-.57.06-.83.13h-.89c-.32,0-.57-.06-.89-.13-.57-.13-1.15-.38-1.59-.7s-.89-.76-1.15-1.21c-.32-.45-.45-.95-.51-1.46.19.45.51.83.83,1.15s.76.57,1.15.76c.89.38,1.85.45,2.74.25s1.78-.51,2.61-1.02c.83-.51,1.53-1.08,2.16-1.78.32-.32.64-.7.89-1.08.13-.19.25-.38.38-.57l.19-.32c.06-.13.13-.19.19-.32.45-.83.83-1.66,1.08-2.55.06-.19.13-.45.19-.7.06-.25.06-.45.13-.7.06-.45.06-.95.06-1.4s-.06-.95-.19-1.4c.06-.38-.13-.83-.38-1.21Z"/>
        </g>
        <g>
          <ellipse class="cls-1" cx="192.77" cy="35.94" rx="6.49" ry="4.39" transform="translate(52.59 173.05) rotate(-54.93)"/>
          <path class="cls-1" d="m188.7,31.06c.95-1.53,2.42-2.8,4.27-3.5.95-.32,1.97-.51,3.06-.38,1.08.13,2.16.57,2.99,1.34.45.38.83.76,1.15,1.27.32.45.57.95.76,1.46.38,1.02.51,2.1.51,3.18,0,.51-.06,1.02-.19,1.53-.13.51-.25,1.02-.38,1.46-.32.95-.76,1.91-1.34,2.74-.57.83-1.21,1.59-1.97,2.29s-1.59,1.27-2.55,1.72-1.97.76-3.06.89c-.51.06-1.08.06-1.66,0s-1.08-.19-1.59-.38c-1.02-.45-1.97-1.15-2.61-2.04-.06-.13-.13-.25-.25-.32l-.19-.38-.06-.19-.06-.19c-.06-.13-.13-.25-.13-.38-.06-.13-.06-.25-.13-.38-.06-.13-.06-.25-.13-.38-.06-.25-.13-.51-.13-.76v-.76c0-.25,0-.51.06-.7.06-.51.13-.95.25-1.4.06-.25.13-.45.19-.64.06-.19.19-.45.25-.64l.32-.57c.13-.19.25-.38.38-.57-.32.83-.57,1.66-.7,2.55-.13.89-.06,1.78.06,2.61.06.19.13.45.19.64,0,.13.06.19.13.32s.06.19.13.32l.13.32.06.13.06.13.19.25c.06.06.13.19.19.25.57.7,1.27,1.21,2.16,1.46.83.25,1.72.32,2.61.19s1.72-.45,2.48-.83c1.53-.83,2.86-2.1,3.82-3.57.95-1.46,1.59-3.18,1.72-4.9.06-.89,0-1.78-.32-2.61-.25-.83-.7-1.59-1.34-2.23-.64-.64-1.46-1.02-2.29-1.21-.83-.19-1.78-.13-2.61.06-1.72.57-3.25,1.59-4.46,2.8Z"/>
        </g>
        <g>
          <ellipse class="cls-1" cx="187.99" cy="65.29" rx="6.49" ry="4.39" transform="translate(26.53 181.63) rotate(-54.93)"/>
          <path class="cls-1" d="m193.92,59.83c.38.32.76.7,1.02,1.15.25.45.45.95.57,1.46.13.51.19,1.02.19,1.59,0,.51,0,1.08-.13,1.59-.06.25-.06.51-.13.76,0,.13-.06.25-.13.38s-.06.25-.13.38l-.13.38c-.06.13-.13.25-.13.38-.06.13-.13.25-.19.38l-.19.38c-.06.13-.13.25-.19.38l-.19.32c-.13.25-.25.45-.45.7-.32.45-.64.83-1.02,1.21s-.76.76-1.21,1.08c-.45.32-.89.64-1.4.89-.51.25-1.02.51-1.53.64-.13.06-.25.06-.38.13s-.25.06-.45.06c-.25.06-.57.06-.83.13h-.89c-.32,0-.57-.06-.89-.13-.57-.13-1.15-.38-1.59-.7s-.89-.76-1.15-1.21c-.32-.45-.45-.95-.51-1.46.19.45.51.83.83,1.15s.76.57,1.15.76c.89.38,1.85.45,2.74.25.89-.19,1.78-.51,2.61-1.02.83-.51,1.53-1.08,2.16-1.78.32-.32.64-.7.89-1.08.13-.19.25-.38.38-.57l.19-.32c.06-.13.13-.19.19-.32.45-.83.83-1.66,1.08-2.55.06-.19.13-.45.19-.7.06-.25.06-.45.13-.7.06-.45.06-.95.06-1.4s-.06-.95-.19-1.4c.06-.38-.13-.83-.38-1.21Z"/>
        </g>
        <g>
          <ellipse class="cls-1" cx="156.92" cy="68.92" rx="6.49" ry="4.39" transform="translate(10.34 157.74) rotate(-54.93)"/>
          <path class="cls-1" d="m162.85,63.46c.38.32.76.7,1.02,1.15.25.45.45.95.57,1.46.13.51.19,1.02.19,1.59,0,.51,0,1.08-.13,1.59-.06.25-.06.51-.13.76,0,.13-.06.25-.13.38s-.06.25-.13.38l-.13.38c-.06.13-.13.25-.13.38-.06.13-.13.25-.19.38l-.19.38c-.06.13-.13.25-.19.38l-.19.32c-.13.25-.25.45-.45.7-.32.45-.64.83-1.02,1.21s-.76.76-1.21,1.08c-.45.32-.89.64-1.4.89-.51.25-1.02.51-1.53.64-.13.06-.25.06-.38.13s-.25.06-.45.06c-.25.06-.57.06-.83.13h-.89c-.32,0-.57-.06-.89-.13-.57-.13-1.15-.38-1.59-.7s-.89-.76-1.15-1.21c-.32-.45-.45-.95-.51-1.46.19.45.51.83.83,1.15s.76.57,1.15.76c.89.38,1.85.45,2.74.25.89-.19,1.78-.51,2.61-1.02.83-.51,1.53-1.08,2.16-1.78.32-.32.64-.7.89-1.08.13-.19.25-.38.38-.57l.19-.32c.06-.13.13-.19.19-.32.45-.83.83-1.66,1.08-2.55.06-.19.13-.45.19-.7.06-.25.06-.45.13-.7.06-.45.06-.95.06-1.4s-.06-.95-.19-1.4c.06-.38-.13-.83-.38-1.21Z"/>
        </g>
        <g>
          <ellipse class="cls-1" cx="174.26" cy="53.52" rx="6.49" ry="4.39" transform="translate(30.33 165.39) rotate(-54.93)"/>
          <path class="cls-1" d="m176.66,45.51c.25-.06.57-.13.83-.13h.89c.57.06,1.15.25,1.72.57.51.32,1.02.7,1.46,1.21.13.13.19.25.32.38.06.13.19.25.25.38.06.13.19.25.25.45.06.13.13.32.19.45.13.32.19.57.32.89.06.13.06.32.13.45,0,.13.06.32.06.45.06.64.13,1.27.06,1.85-.06.64-.13,1.21-.32,1.78-.13.57-.38,1.15-.64,1.72s-.57,1.08-.89,1.59c-.06.13-.19.25-.25.38s-.19.25-.25.38l-.25.32c-.06.06-.06.13-.13.19l-.13.19c-.19.19-.38.45-.64.64-.13.13-.19.19-.32.32s-.25.19-.38.25l-.38.25c-.13.06-.25.19-.38.25s-.25.19-.38.25l-.38.19c-.51.25-1.08.51-1.66.7-.57.13-1.15.25-1.78.32h-.89c-.13,0-.32-.06-.45-.06s-.25-.06-.45-.06l-.45-.13c-.13-.06-.25-.13-.38-.13l-.19-.06c-.06,0-.13-.06-.19-.13-.13-.06-.25-.13-.38-.25,1.02.25,2.1.25,3.12,0,.51-.13,1.02-.32,1.46-.51.25-.13.45-.25.7-.38.19-.13.45-.25.64-.38.89-.57,1.66-1.27,2.29-2.1s1.21-1.72,1.66-2.67.7-1.97.83-2.99c.13-1.02.06-2.1-.25-3.12-.13-.51-.38-.95-.64-1.4s-.64-.83-1.02-1.15-.83-.57-1.34-.76c-.38-.25-.89-.32-1.4-.38Z"/>
        </g>
        <path class="cls-1" d="m152.28,78.62l-7.7.57c-.38,0-.64-.19-.76-.32s-.32-.45-.19-.83l2.16-9.93c-.13.64-1.34,8.53-.7,9.55.64,1.02,6.81,1.02,7.19.95Z"/>
        <path class="cls-1" d="m168.26,29.72c-.38.06-12.16,3.06-13.43,5.54-1.34,2.48-5.28,15.41-5.28,15.41l3.44-15.66c0-.13.06-.25.13-.38.51-1.53,1.78-2.67,3.44-2.93l11.71-1.97Z"/>
        <polygon class="cls-1" points="175.14 32.52 168.83 37.68 169.09 39.59 175.14 32.52"/>
        <path class="cls-1" d="m158.58,48.63s-2.99,2.55-4.07,3.44c-1.08.89.06,1.91.7,1.72l-5.09,4.84-1.78,8.15s13.5-12.8,14.71-13.88c1.21-1.08.13-2.29-.32-2.29l3.31-3.44-4.65,1.72-2.8-.25Z"/>
        <path class="cls-1" d="m182.52,50.98l7-6.94s-3.12-1.02-3.57-3.12l-5.6,5.6s1.78,1.85,2.16,4.46Z"/>
        <path class="cls-1" d="m202,53.28c-.89,6.68-1.78,13.37-2.74,20.12,0,.13-.06.25-.06.38-.25.89-1.08,1.53-2.04,1.59l-22.35,1.66,11.27-1.97-6.05-.38,6.62-1.27s4.39-.57,6.05-2.99c1.66-2.42,2.67-6.68,2.67-6.68,0,0,.57.57.19,2.61-.38,2.04-1.59,5.09-1.59,5.09,0,0,3.44-2.42,3.06-8.72.7-1.27,1.46-2.55,2.16-3.88.96-1.85,1.85-3.69,2.8-5.54Z"/>
        <path class="cls-1" d="m205.69,23.86c.13.13.25.32.19.64l-2.86,21.39-.13-4.65-7.83,9.04-.57-1.91-10.38,9.61,12.73-14.58.51,1.46s3.82-4.01,3.31-9.61c0,0,.32-4.97-2.86-6.75-3.18-1.72-11.27.7-11.52.76l3.88-1.91-10.95.57,25.85-4.27c.32-.06.51.06.64.19Z"/>
        <polygon class="cls-1" points="161.96 77.92 166.99 76.32 179.72 63.53 168.83 76.58 171.95 77.21 161.96 77.92"/>
      </g>
      <path class="cls-1" d="m221.42,51.11c.7.45,1.27,1.02,1.72,1.66.51.64.89,1.34,1.27,2.04.7,1.46,1.08,3.06,1.27,4.65.19,1.59.13,3.25-.25,4.77-.19.76-.45,1.53-.83,2.29-.19.38-.38.7-.7,1.02-.13.13-.25.32-.45.45-.13.13-.32.25-.51.32.57-.51.89-1.27,1.15-1.97s.45-1.46.51-2.23c.19-1.53.19-3.06.06-4.58-.19-1.53-.51-3.06-1.02-4.46-.51-1.46-1.21-2.8-2.23-3.95Z"/>
      <path class="cls-1" d="m225.43,77.47c.19.13.45.25.64.38.13.06.19.13.32.25.06.06.19.13.25.25.06.06.19.19.25.25s.19.19.25.25c.19.19.32.38.51.57.57.83,1.08,1.72,1.46,2.61.83,1.85,1.27,3.82,1.4,5.79,0,.51.06,1.02.06,1.53s-.06,1.02-.13,1.53c-.13,1.02-.32,2.04-.76,2.99-.19.51-.45.95-.76,1.4-.19.19-.32.45-.57.64-.19.19-.45.38-.7.51-.51.25-1.15.38-1.66.25-.25-.06-.51-.19-.7-.32-.19-.13-.38-.32-.57-.51.38.25.83.45,1.34.51h.38c.13,0,.25-.06.38-.06.25-.06.45-.19.64-.32.38-.25.7-.64.95-1.08.25-.38.45-.83.57-1.34.32-.89.45-1.85.57-2.8.06-.95.06-1.91,0-2.86-.13-1.91-.51-3.82-1.15-5.6-.32-.89-.7-1.78-1.15-2.61-.51-.83-1.08-1.66-1.85-2.23Z"/>
      <path class="cls-1" d="m231.03,95.11l-1.02,16.62v.13c-.06.13-.25.13-.25.13-.13,0-.19-.06-.25-.13l-8.66-14.9,8.02,11.01,2.16-12.86Z"/>
      <path class="cls-1" d="m211.55,70.98c.38,2.42.89,6.24,1.08,7.7.25,2.16,5.6,13.62,5.67,13.82l-6.11-10.5c-1.08-1.85-1.53-4.01-1.27-6.11l.64-4.9Z"/>
      <path class="cls-1" d="m217.09,37.42c1.59,3.18,3.5,6.88,5.41,10.7l-5.16-6.81-3.44,13.56,2.16-17.19c.06-.57.76-.7,1.02-.25Z"/>
      <g>
        <path class="cls-1" d="m225.18,118.85c-1.4-1.72-2.67-3.5-3.88-5.35s-2.36-3.69-3.5-5.54c-1.08-1.91-2.16-3.82-3.18-5.73-1.02-1.97-1.97-3.95-2.8-5.98,1.4,1.72,2.67,3.5,3.88,5.35,1.21,1.85,2.36,3.69,3.5,5.54,1.08,1.91,2.16,3.82,3.18,5.73s1.97,3.88,2.8,5.98Z"/>
        <path class="cls-1" d="m226.2,118.28c-1.4-1.72-2.67-3.5-3.88-5.35-1.21-1.85-2.36-3.69-3.5-5.54-1.08-1.91-2.16-3.82-3.18-5.73-1.02-1.97-1.97-3.95-2.8-5.98,1.4,1.72,2.67,3.5,3.88,5.35,1.21,1.85,2.36,3.69,3.5,5.54,1.08,1.91,2.16,3.82,3.18,5.73,1.02,1.97,1.97,3.95,2.8,5.98Z"/>
        <path class="cls-1" d="m227.21,117.77c-1.4-1.72-2.67-3.5-3.88-5.35s-2.36-3.69-3.5-5.54c-1.08-1.91-2.16-3.82-3.18-5.73-1.02-1.97-1.97-3.95-2.8-5.98,1.4,1.72,2.67,3.5,3.88,5.35s2.36,3.69,3.5,5.54c1.08,1.91,2.16,3.82,3.18,5.73,1.02,1.97,1.97,3.95,2.8,5.98Z"/>
      </g>
      <path class="cls-1" d="m170.49,87.53c-7.13,1.08-14.26,2.1-21.39,3.18-.32.06-.51.38-.32.7,2.42,3.82,4.77,7.64,7.19,11.46.13.13.19.32.32.45-3.18-4.07-6.43-8.15-9.61-12.22-.32-.38-.25-.76-.19-1.02.06-.19.25-.7.95-.76,7.64-.64,15.34-1.21,23.05-1.78Z"/>
      <path class="cls-1" d="m202.58,88.48l19.67,32.72c.19.45.19.7.19.83-.06.13-.32.32-.76.32-8.47.19-16.94.38-25.4.57,3.37-.51,6.68-1.02,10.06-1.59-2.04-.32-4.01-.7-6.05-1.02,3.18-.19,6.3-.38,9.49-.57,0,0,7.83-.45,7.26-3.57-.57-3.12-3.06-6.49-3.06-6.49l-3.76-2.8.38-2.48c-3.88-7.07-6.43-11.21-8.21-13.62-.64-.83-1.59-2.42-3.57-3.31-.7-.32-1.53-.45-3.12-.64-1.85-.25-2.99-.25-7.39-.51-.7-.06-1.27-.06-1.59-.06,3.25-.25,6.49-.51,9.74-.76,2.42-.32,4.77.89,6.11,2.99Z"/>
      <path class="cls-1" d="m185.7,123.12l-6.11.13c-3.44.06-6.24-.32-8.59-1.72-.89-.51-1.66-1.21-3.25-2.99-1.72-1.91-4.01-4.71-6.49-8.47,2.86,2.99,5.54,5.09,7.51,6.56,3.57,2.55,7.07,5.22,12.22,6.05,1.4.19,2.99.38,4.71.45Z"/>
      <polygon class="cls-1" points="190.8 86.32 188.95 94.02 189.59 86.13 190.8 86.32"/>
      <path class="cls-1" d="m170.23,100.2c-.19.57-.64,1.08-1.27,1.4-1.59.76-4.27.57-6.94-.51-4.01-1.59-6.56-4.27-5.92-6.3h0c.19-.57.64-1.08,1.27-1.4,1.59-.76,4.27-.57,6.94.51h0c4.01,1.53,6.56,4.27,5.92,6.3h0Zm-12.99-5.03h0c-.38,1.15,1.66,3.37,5.16,4.77,2.74,1.08,4.97,1.02,5.98.57.32-.19.57-.38.64-.64h0c.38-1.15-1.66-3.37-5.16-4.77h0c-2.74-1.08-4.97-1.02-5.98-.57-.32.13-.57.32-.64.64Z"/>
      <path class="cls-1" d="m158.07,91.41c.38-.13.76-.25,1.15-.32.38-.06.76-.13,1.15-.19.38-.06.83-.06,1.21,0,.38,0,.83.06,1.21.06,1.59.19,3.12.64,4.65,1.34.76.32,1.46.76,2.16,1.21.7.45,1.34,1.02,1.91,1.66.13.19.32.32.45.51l.19.25c.06.06.13.19.19.32.25.38.45.83.64,1.27.38.89.51,1.97.32,2.99s-.7,2.04-1.46,2.74c-.38.38-.76.64-1.21.89-.19.13-.45.19-.64.32-.25.13-.45.13-.7.25-.89.25-1.78.32-2.67.25-.45,0-.83-.06-1.27-.13-.19-.06-.38-.06-.64-.13-.19-.06-.38-.06-.57-.13-.19-.06-.38-.13-.57-.19s-.38-.13-.57-.19c-.38-.13-.76-.25-1.15-.45-.19-.06-.38-.19-.57-.25-.19-.06-.38-.19-.51-.25-.38-.19-.7-.38-1.02-.64-.32-.19-.64-.45-.95-.7-.32-.25-.64-.51-.89-.76-.32-.25-.57-.57-.83-.83-.25-.32-.51-.57-.7-.95,1.08,1.08,2.36,1.91,3.76,2.61.7.32,1.4.64,2.1.89.7.25,1.46.45,2.23.57s1.53.19,2.29.19,1.53-.06,2.23-.32c.19-.06.38-.13.51-.19.19-.06.32-.13.51-.25.32-.19.64-.45.89-.7.57-.51.89-1.21,1.08-1.97.13-.76.06-1.53-.25-2.23-.25-.7-.7-1.34-1.21-1.91s-1.08-1.08-1.66-1.53c-.64-.45-1.27-.89-1.91-1.21-1.34-.7-2.8-1.27-4.27-1.66-1.53-.38-3.06-.51-4.58-.25Z"/>
      <ellipse class="cls-1" cx="185.74" cy="104.66" rx="3.12" ry="6.94" transform="translate(18.38 236.73) rotate(-67.68)"/>
      <path class="cls-1" d="m192.9,107.39c-.19.57-.64,1.08-1.27,1.4-1.59.76-4.27.57-6.94-.51-4.01-1.59-6.56-4.27-5.92-6.3h0c.19-.57.64-1.08,1.27-1.4,1.59-.76,4.27-.57,6.94.51h0c4.01,1.53,6.56,4.27,5.92,6.3h0Zm-12.99-5.03h0c-.38,1.15,1.66,3.37,5.16,4.77,2.74,1.08,4.97,1.02,5.98.57.32-.19.57-.38.64-.64h0c.38-1.15-1.66-3.37-5.16-4.77h0c-2.74-1.08-4.97-1.02-5.98-.57-.32.13-.57.38-.64.64Z"/>
      <path class="cls-1" d="m180.74,98.61c.38-.13.76-.25,1.15-.32.38-.06.76-.13,1.15-.19.38-.06.83-.06,1.21,0,.38,0,.83.06,1.21.06,1.59.19,3.12.64,4.65,1.34.76.32,1.46.76,2.16,1.21s1.34,1.02,1.91,1.66c.13.19.32.32.45.51l.19.25c.06.06.13.19.19.32.25.38.45.83.64,1.27.38.89.51,1.97.32,2.99-.19,1.02-.7,2.04-1.46,2.74-.38.38-.76.64-1.21.89-.19.13-.45.19-.64.32-.25.13-.45.13-.7.25-.89.25-1.78.32-2.67.25-.45,0-.83-.06-1.27-.13-.19-.06-.38-.06-.64-.13-.19-.06-.38-.06-.57-.13-.19-.06-.38-.13-.57-.19s-.38-.13-.57-.19c-.38-.13-.76-.25-1.15-.45-.19-.06-.38-.19-.57-.25-.19-.06-.38-.19-.51-.25-.38-.19-.7-.38-1.02-.64-.32-.19-.64-.45-.95-.7-.32-.25-.64-.51-.89-.76-.32-.25-.57-.57-.83-.83-.25-.32-.51-.57-.7-.95,1.08,1.08,2.36,1.91,3.76,2.61.7.32,1.4.64,2.1.89.7.25,1.46.45,2.23.57s1.53.19,2.29.19,1.53-.06,2.23-.32c.19-.06.38-.13.51-.19.19-.06.32-.13.51-.25.32-.19.64-.45.89-.7.57-.51.89-1.21,1.08-1.97.13-.76.06-1.53-.25-2.23-.25-.7-.7-1.34-1.21-1.91s-1.08-1.08-1.66-1.53c-.64-.45-1.27-.89-1.91-1.21-1.34-.7-2.8-1.27-4.27-1.66-1.53-.32-3.06-.51-4.58-.25Z"/>
      <ellipse class="cls-1" cx="207.05" cy="113.07" rx="3.12" ry="6.94" transform="translate(23.82 261.66) rotate(-67.68)"/>
      <path class="cls-1" d="m214.1,115.8c-.19.57-.64,1.08-1.27,1.4-1.59.76-4.27.57-6.94-.51-4.01-1.59-6.56-4.27-5.92-6.3h0c.19-.57.64-1.08,1.27-1.4,1.59-.76,4.27-.57,6.94.51h0c4.07,1.53,6.62,4.27,5.92,6.3h0Zm-12.92-5.09h0c-.38,1.15,1.66,3.37,5.16,4.77,2.74,1.08,4.97,1.02,5.98.57.32-.19.57-.38.64-.64h0c.38-1.15-1.66-3.37-5.16-4.77h0c-2.74-1.08-4.97-1.02-5.98-.57-.32.19-.57.38-.64.64Z"/>
      <path class="cls-1" d="m202,107.01c.38-.13.76-.25,1.15-.32.38-.06.76-.13,1.15-.19.38-.06.83-.06,1.21,0,.38,0,.83.06,1.21.06,1.59.19,3.12.64,4.65,1.34.76.32,1.46.76,2.16,1.21s1.34,1.02,1.91,1.66c.13.19.32.32.45.51l.19.25c.06.06.13.19.19.32.25.38.45.83.64,1.27.38.89.51,1.97.32,2.99-.19,1.02-.7,2.04-1.46,2.74-.38.38-.76.64-1.21.89-.19.13-.45.19-.64.32-.25.13-.45.13-.7.25-.89.25-1.78.32-2.67.25-.45,0-.83-.06-1.27-.13-.19-.06-.38-.06-.64-.13-.19-.06-.38-.06-.57-.13-.19-.06-.38-.13-.57-.19s-.38-.13-.57-.19c-.38-.13-.76-.25-1.15-.45-.19-.06-.38-.19-.57-.25-.19-.06-.38-.19-.51-.25-.38-.19-.7-.38-1.02-.64-.32-.19-.64-.45-.95-.7-.32-.25-.64-.51-.89-.76-.32-.25-.57-.57-.83-.83-.25-.32-.51-.57-.7-.95,1.08,1.08,2.36,1.91,3.76,2.61.7.32,1.4.64,2.1.89.7.25,1.46.45,2.23.57s1.53.19,2.29.19,1.53-.06,2.23-.32c.19-.06.38-.13.51-.19.19-.06.32-.13.51-.25.32-.19.64-.45.89-.7.57-.51.89-1.21,1.08-1.97.13-.76.06-1.53-.25-2.23-.25-.7-.7-1.34-1.21-1.91s-1.08-1.08-1.66-1.53c-.64-.45-1.27-.89-1.91-1.21-1.34-.7-2.8-1.27-4.27-1.66-1.53-.38-3.12-.57-4.58-.25Z"/>
      <polygon class="cls-1" points="175.2 122.1 177.05 107.2 177.11 122.23 175.2 122.1"/>
      <path class="cls-1" d="m173.93,121.46l2.29-20.31c.13-1.02-.95-1.72-1.85-1.27l-1.72.38s-.45,3.31-2.55,3.69-1.72,4.07-1.15,4.2c1.02.13,2.99-2.48,2.99-2.48,0,0-.25,1.08-1.4,2.8l-1.21,10.06,4.58,2.93Z"/>
      <path class="cls-1" d="m169.85,93.9l.83-4.46,4.07-.45-1.72,11.78c-.51-2.42-1.59-4.71-3.18-6.88Z"/>
      <path class="cls-1" d="m192.26,86.32l-3.06,13.18s3.5,1.15,5.16,3.82c1.66,2.67.76,2.74.76,2.74,0,0,2.16.25-1.53-5.86,0,0,1.46,1.02,2.61,2.42l3.69-15.98-7.64-.32Z"/>
      <polygon class="cls-1" points="201.62 88.67 198.76 102.17 203.66 98.22 204.68 92.62 201.62 88.67"/>
      <polygon class="cls-1" points="193.47 110.83 190.67 121.53 187.36 121.72 189.97 111.72 193.47 110.83"/>
    </g>
    <path class="cls-1" d="m221.93,81.74c-.25,1.53-.19,3.5.13,5.54.64,3.82,2.29,7.77,4.07,7.45.64-.13,1.15-.7,1.4-1.66.51-1.66.51-4.27.13-6.68-.32-2.04-.89-3.95-1.59-5.28-.76-1.53-1.66-2.29-2.48-2.1-.83.06-1.4,1.02-1.66,2.74Zm1.85-2.04q-.06,0-.13.06s.06,0,.13-.06h0Z"/>
    <path class="cls-1" d="m217.54,51.94c-.95,1.27-1.21,4.27-.57,7.7.64,3.88,2.42,7.89,4.33,7.7.38-.06.76-.25,1.02-.64.19-.25.38-.64.51-1.08.51-1.53.51-3.95.06-6.62-.64-3.88-2.42-7.89-4.33-7.7-.38.06-.76.25-1.02.64Z"/>
  </g>
</svg>