<?xml version="1.0" encoding="UTF-8"?>
<svg id="_Слой_1" data-name="Слой 1" xmlns="http://www.w3.org/2000/svg" viewBox="0 0 500.49 149.4">
  <defs>
    <style>
      .cls-1 {
        fill: #010101;
      }

      .cls-1, .cls-2 {
        stroke-width: 0px;
      }

      .cls-2 {
        fill: #fff;
      }
    </style>
  </defs>
  <path class="cls-2" d="m43.53,94.53c5.19-5.18,10.22-10.19,15.25-15.22-.17-.29-.49-.16-.75-.16-10.82,0-21.64,0-32.45-.03-1.02,0-1.2.41-1.07,1.3.25,1.8.43,3.61.62,5.42.03.27.17.59-.15.78-.26.15-.48-.04-.69-.17-5.45-3.34-10.87-6.73-16.21-10.23-.68-.44-.58-.78.03-1.17,5.38-3.45,10.74-6.92,16.12-10.38.23-.15.5-.38.78-.18.28.2.14.53.11.8-.22,1.99-.43,3.97-.69,5.95-.09.68.07.97.82.97,11.18-.02,22.35-.01,33.53-.01.14,0,.28-.04.74-.1-5.19-5.5-10.51-10.55-15.75-15.73-.36.42-.22.83-.23,1.19-.02,1.82-.05,3.64-.01,5.46.03,1.14-.82,1.05-1.52,1.23-.73.19-1.01-.19-1.23-.82-2.45-6.89-4.93-13.78-7.37-20.68-.18-.5-.66-1.15-.21-1.57.39-.36,1,.13,1.5.27,6.24,1.83,12.35,4.02,18.54,5.98.57.18,1.16.34.93,1.14-.22.78-.15,1.77-1.44,1.73-1.7-.06-3.41-.01-4.87-.01,5.31,5.43,10.72,10.96,16.14,16.5.37-.16.23-.49.23-.74.01-11.71,0-23.42.03-35.13,0-.8-.22-1.08-1.07-.91-1.82.36-3.65.64-5.48.94-.27.05-.6.2-.82-.04-.27-.31.01-.61.15-.87,3.28-6.1,6.55-12.2,9.85-18.29.47-.88.74-.87,1.21-.02,3.37,6.13,6.73,12.27,10.08,18.41.13.24.42.48.23.77-.23.34-.58.14-.89.09-1.83-.31-3.66-.62-5.48-.95-.65-.12-.89.1-.89.77.02,11.82.02,23.64.02,35.45,0,.07.04.14.06.23.43.06.6-.33.82-.55,4.91-4.88,9.82-9.77,14.72-14.67.24-.24.7-.46.56-.83-.15-.38-.63-.21-.97-.21-1.39-.02-2.79-.03-4.18,0-1.27.03-1.09-1.01-1.33-1.72-.26-.76.4-.88.89-1.04,6.44-2.11,12.89-4.21,19.34-6.31.29-.1.64-.31.91-.06.34.31.05.68-.07.99-2.53,7.09-5.09,14.18-7.61,21.27-.25.71-.56,1.05-1.4.86-.78-.17-1.32-.33-1.29-1.31.05-2.14.02-4.27-.11-6.49-5.38,5.04-10.62,10.17-15.73,15.49.5.42.94.27,1.35.27,10.75.01,21.49.01,32.24.01,1.36,0,1.35,0,1.18-1.29-.23-1.73-.47-3.47-.66-5.2-.04-.39-.28-.92.17-1.18.37-.21.74.16,1.06.36,2.93,1.84,5.86,3.7,8.78,5.55,2.35,1.49,4.7,2.98,7.04,4.49.89.58.89.79,0,1.35-5.35,3.37-10.7,6.72-16.06,10.07-.27.17-.56.43-.88.21-.26-.18-.18-.53-.15-.8.18-1.7.37-3.4.58-5.1.17-1.39.08-1.51-1.26-1.51-10.6,0-21.21-.01-31.81-.01-.34,0-.68.04-.97.06,5.04,5.09,10.04,10.14,15.23,15.38,0-1.68,0-3.19,0-4.7,0-.39.03-.79,0-1.18-.08-.84.18-1.33,1.1-1.47.88-.13,1.28.16,1.58.98,2.48,6.77,5.01,13.52,7.52,20.28.1.27.19.54.27.81.16.58-.12.74-.62.6-.58-.16-1.16-.36-1.73-.56-6.02-2.03-12.04-4.07-18.05-6.11-.52-.17-1.12-.34-.85-1.08.26-.69.06-1.75,1.33-1.72,1.46.04,2.93,0,4.39,0,.28,0,.63.05.78-.24.16-.32-.14-.53-.33-.72-5.15-5.1-10.31-10.19-15.47-15.28-.05-.05-.13-.06-.21-.09-.31.33-.17.74-.17,1.11,0,11.07,0,22.14,0,33.2,0,1.39.04,1.42,1.38,1.17,1.62-.29,3.23-.57,4.85-.84.34-.06.76-.24.99.11.2.3-.09.61-.24.88-2.15,3.87-4.32,7.73-6.48,11.59-1.17,2.09-2.34,4.17-3.51,6.26-.52.93-.72.94-1.25,0-3.26-5.87-6.51-11.74-9.74-17.62-.19-.35-.64-.76-.33-1.15.28-.35.81-.12,1.22-.05,1.69.3,3.37.6,5.05.92.75.14,1.14-.04,1.14-.9-.01-11.46,0-22.92,0-34.38,0-.17.04-.36-.07-.43-5.47,5.49-10.92,10.96-16.41,16.46,1.5,0,3.12.04,4.74-.02.89-.03,1.33.25,1.62,1.13.32.98.08,1.39-.88,1.72-6.05,2.05-12.09,4.14-18.13,6.22-.27.09-.54.2-.82.26-.33.07-.71.36-1,.03-.28-.31-.03-.69.09-1.01,1.53-4.27,3.09-8.52,4.63-12.79.93-2.58,1.9-5.16,2.77-7.77.31-.92.8-1.11,1.68-.98.89.12,1.08.6,1.06,1.39-.03,1.91-.01,3.83-.01,5.89Z"/>
  <g>
    <path class="cls-2" d="m51.65,80.36l-.05-16.16c0-1,.6-1.9,1.53-2.27l15.56-6.26c1.62-.65,3.48-.17,4.58,1.19l8.88,10.97c.68.84,1.13,1.85,1.29,2.92l2.13,14.05c.32,2.08-1.02,4.06-3.07,4.55l-14.66,3.47c-1.74.41-3.56,0-4.95-1.12l-9.42-7.57c-1.14-.92-1.81-2.3-1.81-3.76Z"/>
    <ellipse class="cls-1" cx="60.58" cy="84.37" rx="1.08" ry="2.39" transform="translate(-33.22 128.97) rotate(-79.75)"/>
    <path class="cls-2" d="m60,83.65c-.79-.06-1.91.26-1.26.98s-.5-.24-.5-.24l-.04-.49.45-.39.52-.24.75-.03.44.14-.36.25Z"/>
    <path class="cls-2" d="m59.5,85.12s1.69.13,2.39-.11c-1.02.05-1.54-.15-1.54-.15,0,0,1.51,0,1.79-.24l-.33-.36s-.55.16-1.14.06c-.58-.1-1.15-.42-1-.99s1.19,0,1.19,0l1.04.38.76.44.27.68s-.24.35-.27.36c-.02.02-.8.39-1.29.33-.49-.06-1.87-.4-1.87-.4Z"/>
    <path class="cls-1" d="m85.91,85.83c-.07.72-.32,1.41-.73,2.02-.62.91-1.55,1.56-2.62,1.81l-14.66,3.47c-1.85.44-3.75,0-5.23-1.18l-9.42-7.57c-1.22-.98-1.93-2.45-1.93-4.02l-.05-16.16c0-1.14.68-2.15,1.73-2.57l15.56-6.26c.86-.35,1.79-.41,2.69-.17.9.23,1.68.74,2.27,1.46l8.88,10.97c.72.89,1.19,1.95,1.36,3.08l2.13,14.05c.05.36.06.73.03,1.08Zm-34.26-5.47h.33c0,1.37.62,2.65,1.69,3.5l9.42,7.57c1.32,1.06,3.02,1.45,4.67,1.06l14.66-3.47c1.87-.44,3.11-2.28,2.82-4.18l-2.13-14.05c-.15-1.01-.57-1.97-1.22-2.76l-8.88-10.97c-1.02-1.26-2.71-1.69-4.2-1.09l-15.56,6.26c-.81.32-1.32,1.09-1.32,1.96l.05,16.16h-.33Z"/>
    <path class="cls-1" d="m83.53,88.51c0,.09-.03.17-.05.24-.16.45-.59.71-.94.8l-14.34,3.39c-1.72.38-3.54.53-5.28-.97l-9.24-7.86c-.39-.33-.56-.84-.46-1.34.11-.5.46-.89.96-1.04l16.48-4.93c1.21-.36,2.49-.01,3.35.91l9.17,9.79h0c.3.4.37.74.34,1Zm-29.9-5.53c-.03.31.09.6.33.81l9.24,7.86c1.51,1.3,3.05,1.29,4.9.87l14.34-3.39c.23-.06.53-.23.63-.52.08-.24,0-.51-.22-.81l-9.15-9.78c-.75-.8-1.86-1.1-2.91-.79l-16.48,4.93c-.34.1-.58.37-.66.71,0,.04-.01.07-.02.11Z"/>
    <path class="cls-1" d="m85.81,85.64c-.04.42-.3.79-.7.99-.51.24-1.08.13-1.45-.28l-8.82-9.67c-.66-.72-1.07-1.66-1.16-2.63l-1.47-16.79c-.02-.27.17-.54.47-.67.28-.12.57-.06.74.13,2.25,2.7,8.53,10.54,9.09,11.26.61.77.93,1.89.94,1.94v.03s2.34,15.39,2.34,15.39c.02.11.02.22,0,.32Zm-13.16-28.43l1.47,16.79c.08.88.45,1.72,1.04,2.38l8.82,9.67c.3.33.68.31.94.18.26-.12.52-.41.45-.85l-2.33-15.37c-.04-.12-.34-1.11-.86-1.77-.57-.72-6.84-8.55-9.09-11.25-.04-.05-.15-.04-.23,0-.12.05-.21.15-.2.23h0Z"/>
    <g>
      <path class="cls-1" d="m72.16,73.9c-.08.78-.62,1.45-1.39,1.68l-17.41,5.08c-.45.13-.93.04-1.3-.24-.38-.28-.59-.71-.59-1.18l.06-15.15c0-1.09.66-2.05,1.67-2.44l15.76-6.19c.42-.16.88-.12,1.26.12.38.24.62.63.65,1.08l1.3,16.93c0,.11,0,.22,0,.33Zm-20.18-10.03c0,.07-.01.14-.01.21l-.06,15.15c0,.33.15.63.41.83.26.2.6.26.91.17l17.41-5.08c.68-.2,1.13-.85,1.08-1.55l-1.3-16.93c-.02-.31-.19-.58-.45-.74-.26-.16-.58-.19-.86-.08l-15.76,6.19c-.78.31-1.3,1.01-1.38,1.83Z"/>
      <g>
        <ellipse class="cls-1" cx="56.04" cy="65.37" rx="2.22" ry="1.52" transform="translate(-26.03 91.42) rotate(-67)"/>
        <path class="cls-2" d="m55.34,66.96c-.26-.23-.43-.56-.49-.92-.06-.36-.02-.74.13-1.07.15-.34.39-.63.69-.83.3-.2.64-.32.99-.32-.29.18-.55.37-.77.59-.22.22-.39.47-.51.74-.12.27-.18.56-.19.87,0,.31.05.62.15.95Z"/>
        <path class="cls-2" d="m55.73,66.85c-.26-.15-.44-.43-.52-.74-.08-.31-.05-.65.09-.95.13-.3.38-.55.67-.68.29-.14.61-.16.9-.08-.28.09-.54.19-.75.35-.21.15-.36.35-.47.58-.1.23-.15.48-.14.74,0,.26.08.52.21.79Z"/>
        <path class="cls-2" d="m56.02,65.3c.08.04.11.16.06.29-.05.12-.16.19-.25.16-.08-.04-.11-.16-.06-.29.05-.12.16-.19.25-.16Z"/>
        <path class="cls-1" d="m57.64,63.1c.16.07.3.18.42.32.12.13.23.29.31.45.08.16.14.34.19.52.04.18.07.36.08.55,0,.09,0,.18,0,.28,0,.05,0,.09,0,.14,0,.05,0,.09-.01.14l-.02.14s-.02.09-.02.13c0,.04-.02.09-.03.13l-.03.13s-.02.09-.04.13l-.04.13c-.03.09-.06.17-.1.26-.07.17-.16.33-.25.49-.1.16-.21.31-.33.45-.12.14-.25.28-.4.4-.15.12-.3.23-.47.32-.04.02-.09.05-.13.07-.04.02-.09.04-.13.06-.09.04-.18.07-.28.1-.05.01-.1.03-.14.04-.05,0-.1.02-.15.03-.1.01-.2.02-.3.02-.2,0-.4-.04-.59-.12-.18-.08-.35-.18-.48-.32-.13-.13-.22-.29-.27-.46.1.12.22.23.36.32.14.08.29.14.45.17.32.06.65,0,.94-.11.3-.12.57-.31.8-.53.23-.22.44-.47.6-.75.08-.14.16-.28.23-.42.03-.07.07-.15.09-.22l.04-.11s.03-.08.04-.11c.1-.3.17-.62.19-.94,0-.08,0-.16,0-.24,0-.08,0-.16,0-.24-.02-.16-.04-.32-.08-.47-.04-.16-.1-.31-.17-.45-.07-.14-.17-.27-.28-.39Z"/>
      </g>
      <g>
        <ellipse class="cls-1" cx="66.12" cy="61.54" rx="2.22" ry="1.52" transform="translate(-16.37 98.36) rotate(-67)"/>
        <path class="cls-2" d="m65.42,63.13c-.26-.23-.43-.56-.49-.92-.06-.36-.02-.74.13-1.07.15-.34.39-.63.69-.83.3-.2.64-.32.99-.32-.29.18-.55.37-.77.59-.22.22-.39.47-.51.74-.12.27-.18.56-.19.87,0,.31.05.62.15.95Z"/>
        <path class="cls-2" d="m65.81,63.02c-.26-.15-.44-.43-.52-.74-.08-.31-.05-.65.09-.95.13-.3.38-.55.67-.68.29-.14.61-.16.9-.08-.28.09-.54.19-.75.35-.21.15-.36.35-.47.58-.1.23-.15.48-.14.74,0,.26.08.52.21.79Z"/>
        <path class="cls-2" d="m66.09,61.47c.08.04.11.16.06.29-.05.12-.16.19-.25.16-.08-.04-.11-.16-.06-.29s.16-.19.25-.16Z"/>
        <path class="cls-1" d="m64.42,60.19c.21-.58.61-1.12,1.18-1.48.29-.18.63-.31,1-.34.37-.03.76.04,1.11.22.17.09.33.21.47.34.14.13.26.29.36.45.2.32.32.68.39,1.03.03.18.05.36.05.53,0,.18,0,.35-.02.53-.04.35-.13.69-.25,1.01-.13.32-.29.63-.5.92-.21.28-.45.55-.73.77-.28.22-.6.41-.95.52-.18.06-.36.1-.55.12-.19.02-.38.01-.58-.02-.38-.06-.74-.24-1.02-.5-.03-.03-.07-.06-.1-.1l-.09-.11-.04-.05-.04-.06s-.05-.07-.08-.11c-.02-.04-.04-.08-.06-.12-.02-.04-.04-.08-.06-.12-.03-.08-.07-.16-.09-.24l-.04-.12s-.02-.08-.03-.12c-.02-.08-.03-.16-.04-.25-.02-.16-.02-.33-.01-.49,0-.08.02-.16.03-.24.01-.08.03-.16.04-.23l.06-.23c.03-.07.05-.15.08-.22-.06.3-.08.6-.05.9.03.3.09.6.22.87.03.07.07.13.1.2.02.03.04.06.06.1.02.03.04.06.06.09l.07.09.04.04.04.04.08.08s.06.05.09.07c.23.19.52.31.82.34.3.03.61-.02.89-.12.28-.11.54-.27.77-.46.46-.39.81-.9,1.03-1.47.22-.56.31-1.18.22-1.77-.05-.3-.14-.59-.29-.85-.15-.26-.36-.49-.62-.65-.26-.16-.56-.24-.86-.23-.3,0-.6.08-.87.21-.55.26-.99.71-1.3,1.22Z"/>
      </g>
      <g>
        <ellipse class="cls-1" cx="66.63" cy="71.76" rx="2.22" ry="1.52" transform="translate(-25.46 105.05) rotate(-67)"/>
        <path class="cls-2" d="m65.93,73.35c-.26-.23-.43-.56-.49-.92-.06-.36-.02-.74.13-1.07.15-.34.39-.63.69-.83.3-.2.64-.32.99-.32-.29.18-.55.37-.77.59-.22.22-.39.47-.51.74-.12.27-.18.56-.19.87,0,.31.05.62.15.95Z"/>
        <path class="cls-2" d="m66.32,73.23c-.26-.15-.44-.43-.52-.74-.08-.31-.05-.65.09-.95.13-.3.38-.55.67-.68.29-.14.61-.16.9-.08-.28.09-.54.19-.75.35-.21.15-.36.35-.47.58-.1.23-.15.48-.14.74,0,.26.08.52.21.79Z"/>
        <path class="cls-2" d="m66.6,71.69c.08.04.11.16.06.29-.05.12-.16.19-.25.16s-.11-.16-.06-.29.16-.19.25-.16Z"/>
        <path class="cls-1" d="m68.23,69.48c.16.07.3.18.42.32.12.13.23.29.31.45.08.16.14.34.19.52.04.18.07.36.08.55,0,.09,0,.18,0,.28,0,.05,0,.09,0,.14,0,.05,0,.09-.01.14l-.02.14s-.02.09-.02.13c0,.04-.02.09-.03.13l-.03.13s-.02.09-.04.13l-.04.13c-.03.09-.06.17-.1.26-.07.17-.16.33-.25.49-.1.16-.21.31-.33.45-.12.14-.25.28-.4.4-.15.12-.3.23-.47.32-.04.02-.09.05-.13.07-.04.02-.09.04-.13.06-.09.04-.18.07-.28.1-.05.01-.1.03-.14.04-.05,0-.1.02-.15.03-.1.01-.2.02-.3.02-.2,0-.4-.04-.59-.12-.18-.08-.35-.18-.48-.32-.13-.13-.22-.29-.27-.46.1.12.22.23.36.32.14.08.29.14.45.17.32.06.65,0,.94-.11.3-.12.57-.31.8-.53.23-.22.44-.47.6-.75.08-.14.16-.28.23-.42.03-.07.07-.15.09-.22l.04-.11s.03-.08.04-.11c.1-.3.17-.62.19-.94,0-.08,0-.16,0-.24,0-.08,0-.16,0-.24-.02-.16-.04-.32-.08-.47-.04-.16-.1-.31-.17-.45-.07-.14-.17-.27-.28-.39Z"/>
      </g>
      <g>
        <ellipse class="cls-1" cx="56.44" cy="75.22" rx="2.22" ry="1.52" transform="translate(-34.85 97.78) rotate(-67)"/>
        <path class="cls-2" d="m55.74,76.8c-.26-.23-.43-.56-.49-.92-.06-.36-.02-.74.13-1.07.15-.34.39-.63.69-.83.3-.2.64-.32.99-.32-.29.18-.55.37-.77.59-.22.22-.39.47-.51.74-.12.27-.18.56-.19.87,0,.31.05.62.15.95Z"/>
        <path class="cls-2" d="m56.13,76.69c-.26-.15-.44-.43-.52-.74-.08-.31-.05-.65.09-.95.13-.3.38-.55.67-.68.29-.14.61-.16.9-.08-.28.09-.54.19-.75.35-.21.15-.36.35-.47.58-.1.23-.15.48-.14.74,0,.26.08.52.21.79Z"/>
        <path class="cls-2" d="m56.41,75.15c.08.04.11.16.06.29-.05.12-.16.19-.25.16-.08-.04-.11-.16-.06-.29s.16-.19.25-.16Z"/>
        <path class="cls-1" d="m58.04,72.94c.16.07.3.18.42.32.12.13.23.29.31.45.08.16.14.34.19.52.04.18.07.36.08.55,0,.09,0,.18,0,.28,0,.05,0,.09,0,.14,0,.05,0,.09-.01.14l-.02.14s-.02.09-.02.13c0,.04-.02.09-.03.13l-.03.13s-.02.09-.04.13l-.04.13c-.03.09-.06.17-.1.26-.07.17-.16.33-.25.49-.1.16-.21.31-.33.45-.12.14-.25.28-.4.4-.15.12-.3.23-.47.32-.04.02-.09.05-.13.07-.04.02-.09.04-.13.06-.09.04-.18.07-.28.1-.05.01-.1.03-.14.04-.05,0-.1.02-.15.03-.1.01-.2.02-.3.02-.2,0-.4-.04-.59-.12-.18-.08-.35-.18-.48-.32-.13-.13-.22-.29-.27-.46.1.12.22.23.36.32.14.08.29.14.45.17.32.06.65,0,.94-.11.3-.12.57-.31.8-.53.23-.22.44-.47.6-.75.08-.14.16-.28.23-.42.03-.07.07-.15.09-.22l.04-.11s.03-.08.04-.11c.1-.3.17-.62.19-.94,0-.08,0-.16,0-.24,0-.08,0-.16,0-.24-.02-.16-.04-.32-.08-.47-.04-.16-.1-.31-.17-.45-.07-.14-.17-.27-.28-.39Z"/>
      </g>
      <g>
        <ellipse class="cls-1" cx="61.15" cy="68.78" rx="2.22" ry="1.52" transform="translate(-26.06 98.19) rotate(-67)"/>
        <path class="cls-2" d="m60.45,70.36c-.26-.23-.43-.56-.49-.92-.06-.36-.02-.74.13-1.07.15-.34.39-.63.69-.83.3-.2.64-.32.99-.32-.29.18-.55.37-.77.59-.22.22-.39.47-.51.74-.12.27-.18.56-.19.87,0,.31.05.62.15.95Z"/>
        <path class="cls-2" d="m60.84,70.25c-.26-.15-.44-.43-.52-.74-.08-.31-.05-.65.09-.95.13-.3.38-.55.67-.68.29-.14.61-.16.9-.08-.28.09-.54.19-.75.35-.21.15-.36.35-.47.58-.1.23-.15.48-.14.74,0,.26.08.52.21.79Z"/>
        <path class="cls-2" d="m61.12,68.71c.08.04.11.16.06.29s-.16.19-.25.16c-.08-.04-.11-.16-.06-.29s.16-.19.25-.16Z"/>
        <path class="cls-1" d="m61.39,65.91c.08-.05.17-.08.27-.11.09-.03.19-.04.29-.05.2-.02.41,0,.62.07.2.07.4.17.58.31.04.03.09.07.13.11.04.04.08.08.12.12.04.04.07.08.11.13.04.04.07.09.1.13.06.09.12.19.17.28.03.05.05.1.07.15.02.05.04.1.06.15.08.2.12.41.15.62.03.21.04.42.03.63-.01.21-.04.42-.08.62-.05.2-.11.4-.18.59-.02.05-.04.09-.06.14-.02.05-.04.09-.07.14l-.07.14s-.02.05-.04.07l-.04.07c-.05.09-.11.18-.17.26-.03.04-.06.08-.09.12-.03.04-.07.08-.1.12l-.1.12s-.07.07-.11.11c-.04.04-.07.07-.11.11l-.12.1c-.16.13-.33.25-.51.35-.18.09-.37.18-.57.23-.1.03-.2.04-.3.06-.05,0-.1,0-.15.01-.05,0-.1,0-.15,0h-.15s-.1-.03-.15-.04l-.07-.02s-.05-.02-.07-.02c-.05-.02-.09-.03-.13-.05.36.02.72-.06,1.04-.21.16-.07.31-.17.46-.28.07-.06.14-.11.21-.17.06-.06.13-.12.19-.19.25-.26.46-.55.63-.87.17-.32.29-.66.37-1.01.08-.35.1-.71.07-1.07-.03-.36-.13-.71-.3-1.03-.09-.16-.19-.3-.32-.43-.13-.13-.27-.24-.43-.32-.16-.08-.33-.14-.51-.17-.18-.03-.36-.03-.54,0Z"/>
        <path class="cls-1" d="m59.03,69.72c-.14-.31-.18-.65-.16-.98.02-.34.1-.67.24-.97.14-.31.33-.59.56-.83.24-.24.52-.43.84-.53-.51.38-.9.9-1.15,1.47-.26.58-.38,1.21-.33,1.84Z"/>
      </g>
      <path class="cls-1" d="m55.57,78.81l-2.54.74c-.14.04-.24-.02-.29-.05-.05-.04-.13-.12-.13-.26v-3.51c.02.22.17,2.98.46,3.27.29.29,2.38-.16,2.5-.19Z"/>
      <path class="cls-1" d="m57.44,61.21c-.12.06-3.86,1.91-4.12,2.83-.26.93-.66,5.57-.66,5.57l.02-5.52s0-.09,0-.14c.05-.56.41-1.03.94-1.24l3.82-1.5Z"/>
      <polygon class="cls-1" points="59.94 61.66 58.2 63.84 58.42 64.46 59.94 61.66"/>
      <path class="cls-1" d="m55.54,68.25s-.81,1.08-1.11,1.45.15.63.36.52l-1.37,1.99-.02,2.87s3.63-5.27,3.95-5.73-.13-.77-.27-.76l.87-1.38-1.44.91-.97.13Z"/>
      <path class="cls-1" d="m63.77,67.33l1.85-2.84s-1.12-.12-1.43-.79l-1.48,2.28s.75.48,1.06,1.34Z"/>
      <path class="cls-1" d="m70.33,64.79l.68,8.86s0,.09,0,.14c-.03.32-.25.59-.56.68l-7.4,2.16,3.65-1.48-2.05.3,2.11-.87s1.43-.51,1.82-1.45c.39-.94.42-2.45.42-2.45,0,0,.23.15.25.87.02.72-.18,1.82-.18,1.82,0,0,.99-1.05.41-3.15l.69-2.19.17-3.24Z"/>
      <path class="cls-1" d="m69.6,56.54s.11.09.12.19l.57,7.41-.39-1.56-1.99,3.61-.33-.61-2.77,3.98,3.24-5.82.28.46s1-1.63.42-3.47c0,0-.24-1.7-1.46-2.06-1.2-.35-3.74,1.05-3.81,1.09l1.16-.92-3.65.97,8.38-3.29c.1-.04.17,0,.22.02Z"/>
      <polygon class="cls-1" points="58.79 77.87 60.35 76.97 63.72 71.76 60.99 76.92 62.09 76.91 58.79 77.87"/>
      <path class="cls-1" d="m65.4,69.92c.15-.25.36-.46.6-.64.12-.09.25-.16.39-.23.14-.06.28-.12.43-.15.07-.02.15.03.17.1.02.07-.03.15-.1.17,0,0-.01,0-.02,0h0c-.13.01-.27.04-.4.08-.13.04-.26.09-.39.15-.25.13-.48.3-.67.52Z"/>
    </g>
    <path class="cls-1" d="m73.88,59.08c.77.95,1.68,2.07,2.6,3.21,2.36,2.93,4.8,5.97,5.14,6.4.36.46.63,1.18.72,1.49l1.47,9.66h0s.86,5.67.86,5.67c0,.01,0,.03,0,.04,0,.04-.07.07-.07.07-.05.02-.07,0-.09-.03l-3.99-4.38h0s-2.01-2.21-2.01-2.21h0s-2.81-3.09-2.81-3.09c-.49-.54-.8-1.23-.86-1.96l-.15-1.7-.62-7.08-.52-5.94c-.02-.19.22-.28.34-.14Z"/>
    <g>
      <path class="cls-2" d="m81.96,78.15c-.03.33-.14.57-.36.66-.59.23-1.43-.97-1.91-2.21-.26-.66-.42-1.32-.45-1.85-.04-.59.09-.96.36-1.07h0c.27-.11.62.08.99.54.34.41.66,1.01.92,1.67.31.79.5,1.67.44,2.26Zm-2.44-3.79c0,.1-.01.22,0,.37.03.5.18,1.13.43,1.77.56,1.43,1.28,2.16,1.56,2.05.27-.11.32-1.14-.24-2.57-.25-.64-.56-1.2-.88-1.6-.33-.4-.57-.5-.68-.46h0c-.08.03-.16.16-.19.43Z"/>
      <path class="cls-2" d="m81.19,77.91c-.01-.31-.05-.61-.11-.9-.06-.29-.15-.58-.25-.86-.03-.07-.05-.14-.08-.21-.01-.03-.03-.07-.04-.1l-.05-.1-.09-.21c-.03-.07-.07-.13-.1-.2l-.05-.1s-.04-.07-.06-.1l-.11-.2c-.07-.13-.16-.26-.23-.4.11.11.22.22.32.34l.14.18s.05.06.07.09l.06.1c.04.07.08.13.12.2.04.07.07.14.11.21l.05.1s.03.07.05.11c.03.07.06.14.09.22.1.29.18.6.21.91.03.31.03.63-.05.93Z"/>
      <path class="cls-2" d="m80.91,77.74c0-.26-.03-.51-.07-.76-.04-.25-.09-.49-.17-.73-.08-.24-.18-.46-.3-.68-.12-.22-.28-.42-.45-.62.23.13.43.31.59.52.16.21.29.45.37.71.08.25.12.52.13.78,0,.26-.02.53-.1.78Z"/>
    </g>
    <g>
      <path class="cls-2" d="m78.37,69.25c-.02.16-.05.29-.1.4-.07.15-.17.25-.3.29-.64.21-1.51-1.01-2.02-2.27-.45-1.11-.58-2.15-.35-2.64.07-.15.17-.25.3-.29h0c.64-.21,1.51,1.01,2.02,2.27.35.86.51,1.68.45,2.24Zm-2.6-3.79c-.05.5.11,1.3.44,2.11.54,1.35,1.33,2.23,1.68,2.11.06-.02.1-.07.14-.15.19-.41.05-1.41-.36-2.42-.54-1.35-1.33-2.23-1.68-2.11h0c-.06.02-.1.07-.14.15-.04.08-.06.19-.08.31Z"/>
      <path class="cls-2" d="m77.55,69.03c0-.31-.04-.62-.11-.92-.06-.3-.15-.59-.26-.88l-.09-.21c-.03-.07-.06-.14-.09-.21-.03-.07-.06-.14-.1-.21-.04-.07-.07-.14-.11-.2-.02-.03-.03-.07-.05-.1-.02-.03-.04-.07-.06-.1l-.11-.2c-.08-.13-.16-.26-.24-.4.11.11.22.22.33.34l.15.19s.05.06.07.09c.02.03.04.07.07.1.04.07.09.13.13.2.04.07.08.14.11.21.08.14.13.29.2.44.11.3.19.61.22.93.03.32.03.64-.06.94Z"/>
      <path class="cls-2" d="m77.25,68.85c0-.27-.02-.52-.05-.78-.04-.25-.09-.5-.18-.74-.04-.12-.09-.24-.14-.35-.05-.11-.11-.23-.18-.33-.13-.22-.29-.42-.47-.62.23.13.44.31.61.52.09.11.16.22.23.34.06.12.12.25.16.37.09.26.13.53.14.8,0,.27-.03.54-.12.79Z"/>
      <path class="cls-2" d="m76.93,70.07c-.23-.07-.43-.21-.6-.36-.18-.15-.33-.33-.46-.53-.13-.19-.24-.4-.32-.62-.08-.22-.14-.44-.15-.68.17.42.37.82.62,1.19.25.37.55.72.9.99Z"/>
      <path class="cls-2" d="m76.85,64.57c.26.09.49.25.71.42.21.18.4.38.57.6.34.44.59.94.76,1.46.17.53.27,1.08.26,1.63,0,.28-.04.56-.12.83-.04.13-.09.27-.15.39-.03.06-.07.12-.11.18-.04.06-.09.11-.14.15.15-.22.21-.48.25-.74.03-.26.04-.53.02-.79-.04-.53-.15-1.05-.31-1.55-.17-.5-.39-.98-.67-1.43-.28-.44-.63-.86-1.06-1.16Z"/>
    </g>
    <path class="cls-2" d="m80.1,73.14c.08.02.16.05.24.08.04.02.08.04.12.06.04.02.08.04.11.06.04.02.07.04.11.07.04.02.07.05.11.08.07.05.14.11.2.16.26.23.49.49.69.77.4.56.7,1.19.89,1.86.05.17.09.34.12.51.03.17.06.34.07.52.03.35.03.7-.04,1.06-.03.18-.08.36-.16.53-.04.09-.08.17-.14.25-.06.08-.12.16-.2.22-.15.13-.35.21-.54.21-.1,0-.19-.02-.27-.05-.08-.03-.16-.07-.23-.12.15.06.32.1.48.08.04,0,.08-.01.12-.03.04-.01.08-.03.11-.05.07-.04.14-.09.19-.15.11-.12.19-.27.24-.43.05-.16.08-.32.1-.48.04-.33.02-.66-.02-.99-.04-.33-.11-.65-.2-.97-.18-.63-.44-1.25-.78-1.81-.17-.28-.36-.55-.58-.8-.22-.24-.47-.47-.76-.62Z"/>
    <path class="cls-2" d="m82.63,71.4l-.11-.2-.12-.21c-.08-.14-.16-.28-.24-.42-.08-.14-.16-.28-.25-.41-.04-.07-.09-.14-.13-.2-.05-.07-.09-.14-.14-.2l-.14-.2c-.05-.07-.1-.13-.15-.2-.1-.13-.2-.26-.3-.39-.05-.07-.1-.13-.15-.19l-.15-.19c-.11-.13-.21-.25-.32-.38.13.1.26.21.39.31.13.11.25.22.38.33.12.11.24.23.36.35.12.12.23.24.35.36.06.06.11.13.17.19.06.06.11.13.16.19.11.13.21.26.31.4.05.07.1.14.14.21.05.07.09.14.13.22.04.07.08.15.12.23.02.04.04.08.05.12.02.04.03.08.05.13l-.41.17Z"/>
    <path class="cls-2" d="m83.26,78.68l.86,5.66s0,.03,0,.04c0,.04-.07.07-.07.07-.05.02-.07,0-.09-.03l-3.99-4.38,3.49,3.12-.19-4.48Z"/>
    <path class="cls-2" d="m74.97,71.97c.29.79.75,2.04.92,2.51.25.71,2.86,4.18,2.9,4.23l-2.81-3.09c-.49-.54-.8-1.23-.86-1.96l-.15-1.7Z"/>
    <polygon class="cls-2" points="74.29 68.18 75.35 71.3 73.69 68.45 74.29 68.18"/>
    <path class="cls-2" d="m74.42,60.29c.77.95,1.68,2.07,2.6,3.21l-2.23-1.93-.18,4.8-.52-5.94c-.02-.19.22-.28.34-.14Z"/>
    <g>
      <path class="cls-1" d="m83,87.08c-.59-.48-1.15-.99-1.69-1.52-.54-.53-1.06-1.07-1.57-1.62-.51-.55-1.01-1.12-1.49-1.7-.48-.58-.95-1.18-1.37-1.81.59.48,1.15.99,1.69,1.52.54.53,1.06,1.07,1.57,1.62.51.55,1.01,1.12,1.49,1.7.48.58.95,1.18,1.37,1.81Z"/>
      <path class="cls-1" d="m83.3,86.83c-.59-.48-1.15-.99-1.69-1.52-.54-.53-1.06-1.07-1.57-1.62-.51-.55-1.01-1.12-1.49-1.7-.48-.58-.95-1.18-1.37-1.81.59.48,1.15.99,1.69,1.52.54.53,1.06,1.07,1.57,1.62.51.55,1.01,1.12,1.49,1.7.48.58.95,1.18,1.37,1.81Z"/>
      <path class="cls-1" d="m83.6,86.58c-.59-.48-1.15-.99-1.69-1.52-.54-.53-1.06-1.07-1.57-1.62-.51-.55-1.01-1.12-1.49-1.7-.48-.58-.95-1.18-1.37-1.81.59.48,1.15.99,1.69,1.52.54.53,1.06,1.07,1.57,1.62.51.55,1.01,1.12,1.49,1.7.48.58.95,1.18,1.37,1.81Z"/>
    </g>
    <path class="cls-1" d="m72.97,74.63c-.18-1.1-.32-2.2-.44-3.31-.12-1.1-.23-2.21-.32-3.32-.09-1.11-.17-2.21-.23-3.32-.06-1.11-.1-2.22-.1-3.33.18,1.1.32,2.2.44,3.31.12,1.1.23,2.21.32,3.32.09,1.11.17,2.21.23,3.32.06,1.11.1,2.22.1,3.33Z"/>
    <path class="cls-1" d="m71.76,60.48c-.1-.32-.16-.64-.21-.96-.05-.32-.09-.65-.12-.97-.03-.32-.05-.65-.05-.98,0-.33,0-.65.04-.98.1.32.16.64.21.96.05.32.09.65.12.97.03.32.05.65.05.98,0,.33,0,.65-.04.98Z"/>
    <path class="cls-1" d="m65.02,79.65l-9.65,3.46c-.1.04-.13.17-.06.25l4.45,4.39-.05.03-5.15-4.38c-.13-.11-.14-.24-.13-.33,0-.06.04-.26.27-.33l10.31-3.08Z"/>
    <path class="cls-1" d="m73.2,78.51l8.97,9.59c.1.14.12.23.12.26,0,.04-.1.13-.24.17l-10.79,2.55,5.55-1.78-2.98.33,4.01-1.12s2.61-.72,2.19-1.73c-.42-1.01-1.49-1.98-1.49-1.98l-1.47-.68-.04-.87c-5.01-5.81-4.98-4.79-5.74-4.79-.74,0-4.71.72-4.85.74l4.45-1.33c.83-.25,1.71,0,2.3.62Z"/>
    <path class="cls-1" d="m70.02,91.37l-2.04.48c-1.7.38-3.02.39-4.33-.74l-3.64-3.09,3.85,2.38c1.36.84,2.95,1.25,4.55,1.15.48-.03,1.02-.09,1.61-.19Z"/>
    <polygon class="cls-1" points="69.1 78.62 69.02 81.35 68.66 78.64 69.1 78.62"/>
    <path class="cls-1" d="m63.16,84.77c-.02.21-.14.41-.34.56-.47.36-1.38.49-2.38.33-1.46-.24-2.51-.97-2.44-1.7h0c.02-.22.14-.41.34-.57.47-.36,1.38-.49,2.38-.33h0c1.46.24,2.51.97,2.44,1.7h0Zm-4.72-.77h0c-.04.42.8,1.02,2.08,1.23.99.16,1.74,0,2.04-.24.1-.08.16-.17.17-.26h0c.04-.42-.8-1.02-2.08-1.23h0c-.99-.16-1.74,0-2.04.24-.1.08-.16.17-.17.26Z"/>
    <path class="cls-1" d="m58.45,82.7c.11-.08.23-.14.35-.2.12-.05.25-.1.38-.14.13-.04.26-.07.4-.1.14-.03.27-.04.41-.06.55-.05,1.11,0,1.65.11.27.06.54.14.81.25.27.11.52.25.77.42.06.05.12.09.18.14l.09.08s.06.06.09.08c.11.11.22.24.31.38.18.28.31.62.32.99.01.36-.1.73-.3,1.03-.1.15-.22.28-.35.39-.06.05-.13.1-.2.15-.07.05-.14.09-.21.13-.29.15-.58.23-.87.28-.15.03-.29.04-.43.05-.07,0-.14,0-.21,0-.07,0-.14,0-.21,0-.07,0-.14,0-.21-.01-.07,0-.14-.01-.21-.02-.14-.02-.28-.04-.41-.07-.07-.01-.14-.03-.2-.05-.07-.02-.13-.03-.2-.05-.13-.04-.26-.08-.39-.13-.13-.05-.25-.1-.38-.16-.12-.06-.25-.12-.36-.19-.12-.07-.23-.14-.34-.22-.11-.08-.21-.17-.31-.26.44.28.94.47,1.44.6.25.06.51.11.77.14.26.03.52.04.78.04.26,0,.52-.04.78-.09.26-.06.51-.14.74-.27.06-.03.11-.06.17-.1.05-.04.11-.08.15-.12.1-.09.19-.19.26-.29.14-.22.22-.48.21-.74,0-.26-.1-.52-.24-.74-.14-.22-.33-.41-.54-.57-.21-.16-.44-.29-.67-.4-.24-.11-.48-.2-.73-.28-.5-.15-1.02-.23-1.55-.24-.52,0-1.05.05-1.54.25Z"/>
    <path class="cls-2" d="m60.04,83.83s-.88,0-1,.38c-.1-.19.04-.45.15-.53.11-.08.91-.1.91-.1l-.06.25Z"/>
    <ellipse class="cls-1" cx="68.72" cy="85.16" rx="1.08" ry="2.39" transform="translate(-27.31 137.63) rotate(-79.75)"/>
    <path class="cls-2" d="m68.14,84.44c-.79-.06-1.91.26-1.26.98s-.5-.24-.5-.24l-.04-.49.45-.39.52-.24.75-.03.44.14-.36.25Z"/>
    <path class="cls-2" d="m67.64,85.91s1.69.13,2.39-.11c-1.02.05-1.54-.15-1.54-.15,0,0,1.51,0,1.79-.24l-.33-.36s-.55.16-1.14.06c-.58-.1-1.15-.42-1-.99s1.19,0,1.19,0l1.04.38.76.44.27.68s-.24.35-.27.36c-.02.02-.8.39-1.29.33-.49-.06-1.87-.4-1.87-.4Z"/>
    <path class="cls-1" d="m71.3,85.57c-.02.21-.14.41-.34.56-.47.36-1.38.49-2.38.33-1.46-.24-2.51-.97-2.44-1.7h0c.02-.22.14-.41.34-.57.47-.36,1.38-.49,2.38-.33h0c1.46.24,2.51.97,2.44,1.7h0Zm-4.72-.77h0c-.04.42.8,1.02,2.08,1.23.99.16,1.74,0,2.04-.24.1-.08.16-.17.17-.26h0c.04-.42-.8-1.02-2.08-1.23h0c-.99-.16-1.74,0-2.04.24-.1.08-.16.17-.17.26Z"/>
    <path class="cls-1" d="m66.59,83.49c.11-.08.23-.14.35-.2.12-.05.25-.1.38-.14.13-.04.26-.07.4-.1.14-.03.27-.04.41-.06.55-.05,1.11,0,1.65.11.27.06.54.14.81.25.27.11.52.25.77.42.06.05.12.09.18.14l.09.08s.06.06.09.08c.11.11.22.24.31.38.18.28.31.62.32.99.01.36-.1.73-.3,1.03-.1.15-.22.28-.35.39-.06.05-.13.1-.2.15-.07.05-.14.09-.21.13-.29.15-.58.23-.87.28-.15.03-.29.04-.43.05-.07,0-.14,0-.21,0-.07,0-.14,0-.21,0-.07,0-.14,0-.21-.01-.07,0-.14-.01-.21-.02-.14-.02-.28-.04-.41-.07-.07-.01-.14-.03-.2-.05-.07-.02-.13-.03-.2-.05-.13-.04-.26-.08-.39-.13-.13-.05-.25-.1-.38-.16-.12-.06-.25-.12-.36-.19-.12-.07-.23-.14-.34-.22-.11-.08-.21-.17-.31-.26.44.28.94.47,1.44.6.25.06.51.11.77.14.26.03.52.04.78.04.26,0,.52-.04.78-.09.26-.06.51-.14.74-.27.06-.03.11-.06.17-.1.05-.04.11-.08.15-.12.1-.09.19-.19.26-.29.14-.22.22-.48.21-.74,0-.26-.1-.52-.24-.74-.14-.22-.33-.41-.54-.57-.21-.16-.44-.29-.67-.4-.24-.11-.48-.2-.73-.28-.5-.15-1.02-.23-1.55-.24-.52,0-1.05.05-1.54.25Z"/>
    <path class="cls-2" d="m68.18,84.63s-.88,0-1,.38c-.1-.19.04-.45.15-.53.11-.08.91-.1.91-.1l-.06.25Z"/>
    <ellipse class="cls-1" cx="76.47" cy="86.44" rx="1.08" ry="2.39" transform="translate(-22.2 146.32) rotate(-79.75)"/>
    <path class="cls-2" d="m75.89,85.73c-.79-.06-1.91.26-1.26.98.65.72-.5-.24-.5-.24l-.04-.49.45-.39.52-.24.75-.03.44.14-.36.25Z"/>
    <path class="cls-2" d="m75.4,87.19s1.69.13,2.39-.11c-1.02.05-1.54-.15-1.54-.15,0,0,1.51,0,1.79-.24l-.33-.36s-.55.16-1.14.06c-.58-.1-1.15-.42-1-.99s1.19,0,1.19,0l1.04.38.76.44.27.68s-.24.35-.27.36c-.02.02-.8.39-1.29.33-.49-.06-1.87-.4-1.87-.4Z"/>
    <path class="cls-1" d="m79.05,86.85c-.02.21-.14.41-.34.56-.47.36-1.38.49-2.38.33-1.46-.24-2.51-.97-2.44-1.7h0c.02-.22.14-.41.34-.57.47-.36,1.38-.49,2.38-.33h0c1.46.24,2.51.97,2.44,1.7h0Zm-4.72-.77h0c-.04.42.8,1.02,2.08,1.23.99.16,1.74,0,2.04-.24.1-.08.16-.17.17-.26h0c.04-.42-.8-1.02-2.08-1.23h0c-.99-.16-1.74,0-2.04.24-.1.08-.16.17-.17.26Z"/>
    <path class="cls-1" d="m74.34,84.77c.11-.08.23-.14.35-.2.12-.05.25-.1.38-.14.13-.04.26-.07.4-.1.14-.03.27-.04.41-.06.55-.05,1.11,0,1.65.11.27.06.54.14.81.25.27.11.52.25.77.42.06.05.12.09.18.14l.09.08s.06.06.09.08c.11.11.22.24.31.38.18.28.31.62.32.99.01.36-.1.73-.3,1.03-.1.15-.22.28-.35.39-.06.05-.13.1-.2.15-.07.05-.14.09-.21.13-.29.15-.58.23-.87.28-.15.03-.29.04-.43.05-.07,0-.14,0-.21,0-.07,0-.14,0-.21,0-.07,0-.14,0-.21-.01-.07,0-.14-.01-.21-.02-.14-.02-.28-.04-.41-.07-.07-.01-.14-.03-.2-.05-.07-.02-.13-.03-.2-.05-.13-.04-.26-.08-.39-.13-.13-.05-.25-.1-.38-.16-.12-.06-.25-.12-.36-.19-.12-.07-.23-.14-.34-.22-.11-.08-.21-.17-.31-.26.44.28.94.47,1.44.6.25.06.51.11.77.14.26.03.52.04.78.04.26,0,.52-.04.78-.09.26-.06.51-.14.74-.27.06-.03.11-.06.17-.1.05-.04.11-.08.15-.12.1-.09.19-.19.26-.29.14-.22.22-.48.21-.74,0-.26-.1-.52-.24-.74-.14-.22-.33-.41-.54-.57-.21-.16-.44-.29-.67-.4-.24-.11-.48-.2-.73-.28-.5-.15-1.02-.23-1.55-.24-.52,0-1.05.05-1.54.25Z"/>
    <path class="cls-2" d="m75.94,85.91s-.88,0-1,.38c-.1-.19.04-.45.15-.53s.91-.1.91-.1l-.06.25Z"/>
    <polygon class="cls-1" points="61.66 89.15 61.26 86.55 61.81 86.6 62.26 89.71 61.66 89.15"/>
    <polygon class="cls-1" points="66.42 91.77 65.97 86.64 67.07 91.67 66.42 91.77"/>
    <path class="cls-1" d="m65.95,91.65l-.69-7c-.03-.35-.45-.52-.71-.29l-.55.25s.09,1.14-.6,1.42-.28,1.5-.09,1.49c.35-.02.84-1.06.84-1.06,0,0,0,.39-.27,1.04l.32,3.46,1.76.69Z"/>
    <path class="cls-1" d="m62.58,82.68l-.05-1.55,1.34-.44.27,4.09c-.33-.79-.85-1.5-1.55-2.11Z"/>
    <path class="cls-1" d="m69.57,78.51l-.06,4.65s1.26.13,2,.92c.74.79.46.87.46.87,0,0,.75-.08-.93-1.86,0,0,.57.23,1.05.62l.09-5.63-2.61.44Z"/>
    <polygon class="cls-1" points="72.9 78.63 72.91 83.37 74.28 81.71 74.22 79.74 72.9 78.63"/>
    <polygon class="cls-1" points="71.75 86.68 71.58 90.47 70.47 90.78 70.64 87.23 71.75 86.68"/>
    <path class="cls-1" d="m54.15,81.06c1.28-.47,2.56-.89,3.86-1.3,1.29-.41,2.59-.81,3.89-1.18,1.3-.38,2.61-.75,3.92-1.09,1.31-.35,2.62-.68,3.95-.97-1.28.47-2.56.89-3.86,1.3-1.29.41-2.59.8-3.89,1.18-1.3.38-2.61.74-3.92,1.09-1.31.35-2.62.68-3.95.97Z"/>
  </g>
</svg>