<?xml version="1.0" encoding="UTF-8"?>
<svg id="_Слой_1" data-name="Слой 1" xmlns="http://www.w3.org/2000/svg" viewBox="0 0 500.49 149.4">
  <defs>
    <style>
      .cls-1 {
        fill: #fff;
        stroke-width: 0px;
      }
    </style>
  </defs>
  <g>
    <g>
      <g>
        <path class="cls-1" d="m38.91,93.16h12.43l18.65-19.1-18.65-19.1H14.16l-12.09-12.77h55.49l30.97,31.87-31.08,31.87h-18.53v-12.77Zm-6.22,12.77v-44.53h-15.48v44.53h15.48Z"/>
        <path class="cls-1" d="m156.79,55.07l-11.87-12.77h45.88l18.53,19.1-9.27,9.49h-18.53l9.27-9.49-6.22-6.33h-27.8Zm18.53,50.86h-15.48v-44.53h15.48v44.53Zm6.22-28.59v12.77h12.43l15.48,15.94h18.53l-27.91-28.71h-18.53Z"/>
        <path class="cls-1" d="m212.5,106.04v-63.74h15.48v63.74h-15.48Zm27.91-38.2l24.75-25.43h18.53l-30.97,31.87,30.97,31.76h-18.53l-24.75-25.54h-6.22v-12.77l6.22.11Z"/>
        <path class="cls-1" d="m107.06,54.96h-18.53l-12.09-12.77h36.84l61.93,63.74h-18.53l-49.61-50.97Zm-15.48,6.44v44.53h15.48v-15.94h27.91l-12.43-12.77h-15.48v-15.94l-15.48.11Z"/>
      </g>
      <g>
        <path class="cls-1" d="m310.94,93.16h12.43l18.65-19.1-18.53-19.1h-37.18l-12.21-12.77h55.49l30.97,31.87-30.97,31.87h-18.53l-.11-12.77Zm-6.1,12.77v-44.53h-15.48v44.53h15.48Z"/>
        <path class="cls-1" d="m360.55,54.96l-11.87-12.77h86.34l-12.43,12.77h-62.04Zm3.05,50.97h55.72l-12.43-12.77h-27.91v-12.77h15.48l12.43-12.77h-27.91v-6.33h-15.48l.11,44.64Z"/>
        <path class="cls-1" d="m438.08,42.3v28.71l27.91-28.59h18.53l-62.04,63.63v-63.74h15.6Z"/>
      </g>
    </g>
    <polygon class="cls-1" points="484.08 68.63 484.08 106.49 447.35 106.49 458.42 94.97 472.89 94.97 472.89 80.16 484.08 68.63"/>
  </g>
  <g>
    <path class="cls-1" d="m158.37,121.52v12.88h-2.03v-15.03h9.38c1.13,0,2.15.45,2.94,1.24.79.79,1.24,1.81,1.24,3.05s-.45,2.15-1.24,3.05c-.79.79-1.81,1.24-2.94,1.24h-1.7l6.22,6.44h-2.94l-8.36-8.59h6.67c.57,0,1.02-.23,1.47-.68.45-.45.57-.9.57-1.47s-.23-1.13-.57-1.47c-.45-.45-.9-.68-1.47-.68,0,0-7.23,0-7.23,0Z"/>
    <path class="cls-1" d="m184.14,119.38v2.15h-10.4v10.74h10.4v2.15h-12.54v-15.03h12.54Zm0,8.48h-8.36v-2.15h8.36v2.15Z"/>
    <path class="cls-1" d="m188.32,121.52v12.88h-2.03v-15.03h12.54v2.15s-10.51,0-10.51,0Zm10.4,6.33h-8.36v-2.15h8.36v2.15Z"/>
    <path class="cls-1" d="m200.86,119.38h2.03v12.88h10.4v2.15h-12.54v-15.03h.11Z"/>
    <path class="cls-1" d="m227.54,119.38v2.15h-10.4v10.74h10.4v2.15h-12.54v-15.03h12.54Zm0,8.48h-8.36v-2.15h8.36v2.15Z"/>
    <path class="cls-1" d="m236.35,119.38h6.22v2.15h-6.22c-1.47,0-2.71.57-3.73,1.58-1.02,1.02-1.47,2.26-1.47,3.73s.45,2.71,1.47,3.73c1.02,1.02,2.26,1.58,3.73,1.58h6.22v2.15h-6.22c-2.03,0-3.73-.68-5.2-2.15s-2.15-3.28-2.15-5.31.68-3.84,2.15-5.31c1.47-1.47,3.16-2.15,5.2-2.15Z"/>
    <path class="cls-1" d="m257.15,121.52h-12.54v-2.15h12.54v2.15Zm-5.2,12.77h-2.03v-10.74h2.03v10.74Z"/>
    <path class="cls-1" d="m261.33,134.3h-2.03v-2.15h2.03v2.15Z"/>
    <path class="cls-1" d="m276.02,119.38h6.22v2.15h-6.22c-1.47,0-2.71.57-3.73,1.58-1.02,1.02-1.58,2.26-1.58,3.73s.45,2.71,1.58,3.73c1.02,1.02,2.26,1.58,3.73,1.58h4.18v-4.29h-4.18v-2.15h6.22v8.59h-6.22c-2.03,0-3.73-.68-5.2-2.15-1.47-1.47-2.15-3.28-2.15-5.31s.68-3.84,2.15-5.31c1.47-1.47,3.16-2.15,5.2-2.15Z"/>
    <path class="cls-1" d="m286.76,132.15h7.01v2.15h-10.28l7.68-16.27,7.68,16.27h-2.37l-5.42-11.41-4.29,9.27Z"/>
    <path class="cls-1" d="m302.01,122.54v11.75h-2.03v-14.92h2.03l5.2,5.31,5.2-5.31h2.03v15.03h-2.03v-11.87l-5.2,5.31-5.2-5.31Z"/>
    <path class="cls-1" d="m318.74,134.3h-2.03v-14.92h2.03v14.92Z"/>
    <path class="cls-1" d="m322.92,121.52v12.88h-2.03v-15.03h12.54v2.15s-10.51,0-10.51,0Zm10.4,6.33h-8.36v-2.15h8.36v2.15Z"/>
    <path class="cls-1" d="m340.55,127.18l-6.55-7.91h2.71l4.86,5.88,4.86-5.88h2.71l-6.55,7.91v7.12h-2.03v-7.12Z"/>
    <path class="cls-1" d="m352.53,134.3h-2.15v-2.15h2.03v2.15h.11Z"/>
    <path class="cls-1" d="m359.88,119.38h9.38c1.13,0,2.15.45,2.94,1.24.79.79,1.24,1.81,1.24,3.05s-.45,2.15-1.24,3.05c-.79.79-1.81,1.24-2.94,1.24h-7.23v6.44h-2.03v-15.03h-.11Zm2.03,2.15v4.29h7.23c.57,0,1.02-.23,1.47-.68s.57-.9.57-1.47-.23-1.13-.57-1.47c-.45-.45-.9-.68-1.47-.68h-7.23Z"/>
    <path class="cls-1" d="m377.17,121.52v12.88h-2.03v-15.03h9.38c1.13,0,2.15.45,2.94,1.24s1.24,1.81,1.24,3.05-.45,2.15-1.24,3.05c-.79.79-1.81,1.24-2.94,1.24h-1.7l6.22,6.44h-2.94l-8.36-8.59h6.67c.57,0,1.02-.23,1.47-.68s.57-.9.57-1.47-.23-1.13-.57-1.47c-.45-.45-.9-.68-1.47-.68,0,0-7.23,0-7.23,0Z"/>
    <path class="cls-1" d="m397.51,134.86c-2.15,0-3.96-.79-5.54-2.37-1.47-1.58-2.26-3.5-2.26-5.65,0-2.26.79-4.07,2.26-5.65,1.47-1.58,3.39-2.37,5.54-2.37s3.96.79,5.54,2.37c1.47,1.58,2.26,3.5,2.26,5.65,0,2.26-.79,4.07-2.26,5.65-1.47,1.58-3.39,2.37-5.54,2.37Zm0-2.15c1.58,0,2.94-.57,4.07-1.7,1.13-1.13,1.7-2.49,1.7-4.18s-.57-3.05-1.7-4.18-2.49-1.7-4.07-1.7-2.94.57-4.07,1.7-1.7,2.49-1.7,4.18.57,3.05,1.7,4.18c1.13,1.13,2.49,1.7,4.07,1.7Z"/>
    <path class="cls-1" d="m414.24,119.38h6.22v2.15h-6.22c-1.47,0-2.71.57-3.73,1.58-1.02,1.02-1.58,2.26-1.58,3.73s.57,2.71,1.58,3.73,2.26,1.58,3.73,1.58h4.18v-4.29h-4.18v-2.15h6.22v8.59h-6.22c-2.03,0-3.73-.68-5.2-2.15-1.47-1.47-2.15-3.28-2.15-5.31s.68-3.84,2.15-5.31c1.47-1.47,3.16-2.15,5.2-2.15Z"/>
    <path class="cls-1" d="m424.63,121.52v12.88h-2.03v-15.03h9.38c1.13,0,2.15.45,2.94,1.24s1.24,1.81,1.24,3.05-.45,2.15-1.24,3.05c-.79.79-1.81,1.24-2.94,1.24h-1.7l6.22,6.44h-2.94l-8.36-8.59h6.67c.57,0,1.02-.23,1.47-.68s.57-.9.57-1.47-.23-1.13-.57-1.47c-.45-.45-.9-.68-1.47-.68,0,0-7.23,0-7.23,0Z"/>
    <path class="cls-1" d="m450.4,119.38v2.15h-10.4v10.74h10.4v2.15h-12.54v-15.03h12.54Zm0,8.48h-8.36v-2.15h8.36v2.15Z"/>
    <path class="cls-1" d="m456.05,119.38h9.38v2.15h-9.38c-.57,0-1.02.23-1.47.68s-.57.9-.57,1.47.23,1.13.57,1.47c.45.45.9.68,1.47.68h5.2c1.13,0,2.15.45,2.94,1.24.79.79,1.24,1.81,1.24,3.05,0,1.13-.45,2.15-1.24,3.05-.79.79-1.81,1.24-2.94,1.24h-9.38v-2.15h9.38c.57,0,1.02-.23,1.47-.68s.57-.9.57-1.47-.23-1.13-.57-1.47c-.45-.45-.9-.68-1.47-.68h-5.2c-1.13,0-2.15-.45-2.94-1.24-.79-.79-1.24-1.81-1.24-3.05s.45-2.15,1.24-3.05c.79-.9,1.81-1.24,2.94-1.24Z"/>
    <path class="cls-1" d="m470.86,119.38h9.38v2.15h-9.38c-.57,0-1.02.23-1.47.68s-.57.9-.57,1.47.23,1.13.57,1.47c.45.45.9.68,1.47.68h5.2c1.13,0,2.15.45,2.94,1.24s1.24,1.81,1.24,3.05c0,1.13-.45,2.15-1.24,3.05-.79.79-1.81,1.24-2.94,1.24h-9.38v-2.15h9.38c.57,0,1.02-.23,1.47-.68s.57-.9.57-1.47-.23-1.13-.57-1.47c-.45-.45-.9-.68-1.47-.68h-5.2c-1.13,0-2.15-.45-2.94-1.24-.79-.79-1.24-1.81-1.24-3.05s.45-2.15,1.24-3.05c.79-.9,1.7-1.24,2.94-1.24Z"/>
    <path class="cls-1" d="m484.3,134.3h-2.03v-2.15h2.03v2.15Z"/>
  </g>
</svg>